999
dxflib 2.0.4.8
  0
SECTION
  2
HEADER
  9
$ACADVER
  1
AC1015
  9
$HANDSEED
  5
FFFF
  9
$DIMADEC
 70
2
  9
$GRIDUNIT
 10
0.0
 20
0.0
  9
$DIMASZ
 40
2.5
  9
$DIMGAP
 40
0.625
  9
$LUNITS
 70
2
  9
$AUPREC
 70
2
  9
$SPLINESEGS
 70
8
  9
$INSUNITS
 70
4
  9
$DIMEXO
 40
0.625
  9
$DIMLUNIT
 70
2
  9
$GRIDMODE
 70
1
  9
$DIMTXT
 40
2.5
  9
$LUPREC
 70
4
  9
$DIMSTYLE
  2
Standard
  9
$PSVPSCALE
 40
1.0
  9
$PLIMMIN
 10
0.0
 20
0.0
  9
$PLIMMAX
 10
210.0
 20
297.0
  9
$PINSBASE
 10
-388.2866237795518032
 20
126.6633635759488783
 30
0.0
  9
$DIMEXE
 40
1.25
  9
$DIMAUNIT
 70
0
  9
$AUNITS
 70
0
  0
ENDSEC
  0
SECTION
  2
TABLES
  0
TABLE
  2
VPORT
  5
8
100
AcDbSymbolTable
 70
1
  0
VPORT
  5
30
100
AcDbSymbolTableRecord
100
AcDbViewportTableRecord
  2
*Active
 70
0
 10
0.0
 20
0.0
 11
1.0
 21
1.0
 12
286.3055555555554861
 22
148.5
 13
0.0
 23
0.0
 14
10.0
 24
10.0
 15
10.0
 25
10.0
 16
0.0
 26
0.0
 36
1.0
 17
0.0
 27
0.0
 37
0.0
 40
297.0
 41
1.92798353909465
 42
50.0
 43
0.0
 44
0.0
 50
0.0
 51
0.0
 71
0
 72
100
 73
1
 74
3
 75
1
 76
1
 77
0
 78
0
281
0
 65
1
110
0.0
120
0.0
130
0.0
111
1.0
121
0.0
131
0.0
112
0.0
122
1.0
132
0.0
 79
0
146
0.0
  0
ENDTAB
  0
TABLE
  2
LTYPE
  5
5
100
AcDbSymbolTable
 70
21
  0
LTYPE
  5
14
100
AcDbSymbolTableRecord
100
AcDbLinetypeTableRecord
  2
ByBlock
 70
0
  3

 72
65
 73
0
 40
0.0
  0
LTYPE
  5
15
100
AcDbSymbolTableRecord
100
AcDbLinetypeTableRecord
  2
ByLayer
 70
0
  3

 72
65
 73
0
 40
0.0
  0
LTYPE
  5
16
100
AcDbSymbolTableRecord
100
AcDbLinetypeTableRecord
  2
CONTINUOUS
 70
0
  3
Solid line
 72
65
 73
0
 40
0.0
  0
LTYPE
  5
31
100
AcDbSymbolTableRecord
100
AcDbLinetypeTableRecord
  2
DOT
 70
0
  3
Dot . . . . . . . . . . . . . . . . . . . . . .
 72
65
 73
2
 40
6.3499999999999996
 49
0.0
 74
0
 49
-6.3499999999999996
 74
0
  0
LTYPE
  5
32
100
AcDbSymbolTableRecord
100
AcDbLinetypeTableRecord
  2
DOT2
 70
0
  3
Dot (.5x) .....................................
 72
65
 73
2
 40
3.1749999999999998
 49
0.0
 74
0
 49
-3.1749999999999998
 74
0
  0
LTYPE
  5
33
100
AcDbSymbolTableRecord
100
AcDbLinetypeTableRecord
  2
DOTX2
 70
0
  3
Dot (2x) .  .  .  .  .  .  .  .  .  .  .  .  .
 72
65
 73
2
 40
12.6999999999999993
 49
0.0
 74
0
 49
-12.6999999999999993
 74
0
  0
LTYPE
  5
34
100
AcDbSymbolTableRecord
100
AcDbLinetypeTableRecord
  2
DASHED
 70
0
  3
Dashed __ __ __ __ __ __ __ __ __ __ __ __ __ _
 72
65
 73
2
 40
19.0500000000000007
 49
12.6999999999999993
 74
0
 49
-6.3499999999999996
 74
0
  0
LTYPE
  5
35
100
AcDbSymbolTableRecord
100
AcDbLinetypeTableRecord
  2
DASHED2
 70
0
  3
Dashed (.5x) _ _ _ _ _ _ _ _ _ _ _ _ _ _ _ _ _
 72
65
 73
2
 40
9.5250000000000004
 49
6.3499999999999996
 74
0
 49
-3.1749999999999998
 74
0
  0
LTYPE
  5
36
100
AcDbSymbolTableRecord
100
AcDbLinetypeTableRecord
  2
DASHEDX2
 70
0
  3
Dashed (2x) ____  ____  ____  ____  ____  ___
 72
65
 73
2
 40
38.1000000000000014
 49
25.3999999999999986
 74
0
 49
-12.6999999999999993
 74
0
  0
LTYPE
  5
37
100
AcDbSymbolTableRecord
100
AcDbLinetypeTableRecord
  2
DASHDOT
 70
0
  3
Dash dot __ . __ . __ . __ . __ . __ . __ . __
 72
65
 73
4
 40
25.3999999999999986
 49
12.6999999999999993
 74
0
 49
-6.3499999999999996
 74
0
 49
0.0
 74
0
 49
-6.3499999999999996
 74
0
  0
LTYPE
  5
38
100
AcDbSymbolTableRecord
100
AcDbLinetypeTableRecord
  2
DASHDOT2
 70
0
  3
Dash dot (.5x) _._._._._._._._._._._._._._._.
 72
65
 73
4
 40
12.6999999999999993
 49
6.3499999999999996
 74
0
 49
-3.1749999999999998
 74
0
 49
0.0
 74
0
 49
-3.1749999999999998
 74
0
  0
LTYPE
  5
39
100
AcDbSymbolTableRecord
100
AcDbLinetypeTableRecord
  2
DASHDOTX2
 70
0
  3
Dash dot (2x) ____  .  ____  .  ____  .  ___
 72
65
 73
4
 40
50.7999999999999972
 49
25.3999999999999986
 74
0
 49
-12.6999999999999993
 74
0
 49
0.0
 74
0
 49
-12.6999999999999993
 74
0
  0
LTYPE
  5
3A
100
AcDbSymbolTableRecord
100
AcDbLinetypeTableRecord
  2
DIVIDE
 70
0
  3
Divide ____ . . ____ . . ____ . . ____ . . ____
 72
65
 73
6
 40
31.75
 49
12.6999999999999993
 74
0
 49
-6.3499999999999996
 74
0
 49
0.0
 74
0
 49
-6.3499999999999996
 74
0
 49
0.0
 74
0
 49
-6.3499999999999996
 74
0
  0
LTYPE
  5
3B
100
AcDbSymbolTableRecord
100
AcDbLinetypeTableRecord
  2
DIVIDE2
 70
0
  3
Divide (.5x) __..__..__..__..__..__..__..__.._
 72
65
 73
6
 40
15.875
 49
6.3499999999999996
 74
0
 49
-3.1749999999999998
 74
0
 49
0.0
 74
0
 49
-3.1749999999999998
 74
0
 49
0.0
 74
0
 49
-3.1749999999999998
 74
0
  0
LTYPE
  5
3C
100
AcDbSymbolTableRecord
100
AcDbLinetypeTableRecord
  2
DIVIDEX2
 70
0
  3
Divide (2x) ________  .  .  ________  .  .  _
 72
65
 73
6
 40
63.5
 49
25.3999999999999986
 74
0
 49
-12.6999999999999993
 74
0
 49
0.0
 74
0
 49
-12.6999999999999993
 74
0
 49
0.0
 74
0
 49
-12.6999999999999993
 74
0
  0
LTYPE
  5
3D
100
AcDbSymbolTableRecord
100
AcDbLinetypeTableRecord
  2
CENTER
 70
0
  3
Center ____ _ ____ _ ____ _ ____ _ ____ _ ____
 72
65
 73
4
 40
50.7999999999999972
 49
31.75
 74
0
 49
-6.3499999999999996
 74
0
 49
6.3499999999999996
 74
0
 49
-6.3499999999999996
 74
0
  0
LTYPE
  5
3E
100
AcDbSymbolTableRecord
100
AcDbLinetypeTableRecord
  2
CENTER2
 70
0
  3
Center (.5x) ___ _ ___ _ ___ _ ___ _ ___ _ ___
 72
65
 73
4
 40
28.5749999999999993
 49
19.0500000000000007
 74
0
 49
-3.1749999999999998
 74
0
 49
3.1749999999999998
 74
0
 49
-3.1749999999999998
 74
0
  0
LTYPE
  5
3F
100
AcDbSymbolTableRecord
100
AcDbLinetypeTableRecord
  2
CENTERX2
 70
0
  3
Center (2x) ________  __  ________  __  _____
 72
65
 73
4
 40
101.5999999999999943
 49
63.5
 74
0
 49
-12.6999999999999993
 74
0
 49
12.6999999999999993
 74
0
 49
-12.6999999999999993
 74
0
  0
LTYPE
  5
40
100
AcDbSymbolTableRecord
100
AcDbLinetypeTableRecord
  2
BORDER
 70
0
  3
Border __ __ . __ __ . __ __ . __ __ . __ __ .
 72
65
 73
6
 40
44.4500000000000028
 49
12.6999999999999993
 74
0
 49
-6.3499999999999996
 74
0
 49
12.6999999999999993
 74
0
 49
-6.3499999999999996
 74
0
 49
0.0
 74
0
 49
-6.3499999999999996
 74
0
  0
LTYPE
  5
41
100
AcDbSymbolTableRecord
100
AcDbLinetypeTableRecord
  2
BORDER2
 70
0
  3
Border (.5x) __.__.__.__.__.__.__.__.__.__.__.
 72
65
 73
6
 40
22.2250000000000014
 49
6.3499999999999996
 74
0
 49
-3.1749999999999998
 74
0
 49
6.3499999999999996
 74
0
 49
-3.1749999999999998
 74
0
 49
0.0
 74
0
 49
-3.1749999999999998
 74
0
  0
LTYPE
  5
42
100
AcDbSymbolTableRecord
100
AcDbLinetypeTableRecord
  2
BORDERX2
 70
0
  3
Border (2x) ____  ____  .  ____  ____  .  ___
 72
65
 73
6
 40
88.9000000000000057
 49
25.3999999999999986
 74
0
 49
-12.6999999999999993
 74
0
 49
25.3999999999999986
 74
0
 49
-12.6999999999999993
 74
0
 49
0.0
 74
0
 49
-12.6999999999999993
 74
0
  0
ENDTAB
  0
TABLE
  2
LAYER
  5
2
100
AcDbSymbolTable
 70
1
  0
LAYER
  5
10
100
AcDbSymbolTableRecord
100
AcDbLayerTableRecord
  2
0
 70
0
 62
7
  6
CONTINUOUS
370
25
390
F
  0
ENDTAB
  0
TABLE
  2
STYLE
  5
3
100
AcDbSymbolTable
 70
1
  0
STYLE
  5
11
100
AcDbSymbolTableRecord
100
AcDbTextStyleTableRecord
  2
Standard
 70
0
 40
0.0
 41
0.75
 50
0.0
 71
0
 42
2.5
  3
txt
  4

  0
ENDTAB
  0
TABLE
  2
VIEW
  5
6
100
AcDbSymbolTable
 70
0
  0
ENDTAB
  0
TABLE
  2
UCS
  5
7
100
AcDbSymbolTable
 70
0
  0
ENDTAB
  0
TABLE
  2
APPID
  5
9
100
AcDbSymbolTable
 70
1
  0
APPID
  5
12
100
AcDbSymbolTableRecord
100
AcDbRegAppTableRecord
  2
ACAD
 70
0
  0
ENDTAB
  0
TABLE
  2
DIMSTYLE
  5
A
100
AcDbSymbolTable
 70
1
100
AcDbDimStyleTable
 71
0
  0
DIMSTYLE
105
27
100
AcDbSymbolTableRecord
100
AcDbDimStyleTableRecord
  2
Standard
 41
2.5
 42
0.625
 43
3.75
 44
1.25
 70
0
 73
0
 74
0
 77
1
 78
8
140
2.5
141
2.5
143
0.03937007874016
147
0.625
171
3
172
1
271
2
272
2
274
3
278
44
283
0
284
8
340
11
  0
ENDTAB
  0
TABLE
  2
BLOCK_RECORD
  5
1
100
AcDbSymbolTable
 70
1
  0
BLOCK_RECORD
  5
1F
100
AcDbSymbolTableRecord
100
AcDbBlockTableRecord
  2
*Model_Space
340
22
  0
BLOCK_RECORD
  5
1B
100
AcDbSymbolTableRecord
100
AcDbBlockTableRecord
  2
*Paper_Space
340
1E
  0
BLOCK_RECORD
  5
23
100
AcDbSymbolTableRecord
100
AcDbBlockTableRecord
  2
*Paper_Space0
340
26
  0
ENDTAB
  0
ENDSEC
  0
SECTION
  2
BLOCKS
  0
BLOCK
  5
20
100
AcDbEntity
  8
0
100
AcDbBlockBegin
  2
*Model_Space
 70
0
 10
0.0
 20
0.0
 30
0.0
  3
*Model_Space
  1

  0
ENDBLK
  5
21
100
AcDbEntity
  8
0
100
AcDbBlockEnd
  0
BLOCK
  5
1C
100
AcDbEntity
 67
1
  8
0
100
AcDbBlockBegin
  2
*Paper_Space
 70
0
 10
0.0
 20
0.0
 30
0.0
  3
*Paper_Space
  1

  0
ENDBLK
  5
1D
100
AcDbEntity
 67
1
  8
0
100
AcDbBlockEnd
  0
BLOCK
  5
24
100
AcDbEntity
  8
0
100
AcDbBlockBegin
  2
*Paper_Space0
 70
0
 10
0.0
 20
0.0
 30
0.0
  3
*Paper_Space0
  1

  0
ENDBLK
  5
25
100
AcDbEntity
  8
0
100
AcDbBlockEnd
  0
ENDSEC
  0
SECTION
  2
ENTITIES
  0
ARC
  5
43
100
AcDbEntity
  8
0
 62
256
370
-1
  6
ByLayer
100
AcDbCircle
 10
533.0508652763321606
 20
39.9137802864844389
 30
0.0
 40
20.0
100
AcDbArc
 50
270.0
 51
0.0
  0
ARC
  5
44
100
AcDbEntity
  8
0
 62
256
370
-1
  6
ByLayer
100
AcDbCircle
 10
533.0508652763321606
 20
39.9137802864844389
 30
0.0
 40
20.0
100
AcDbArc
 50
0.0
 51
90.0
  0
LINE
  5
45
100
AcDbEntity
100
AcDbLine
  8
0
 62
256
370
-1
  6
ByLayer
 10
463.0508652763321606
 20
79.9137802864844389
 30
0.0
 11
463.0508652763321606
 21
39.9137802864844389
 31
0.0
  0
LINE
  5
46
100
AcDbEntity
100
AcDbLine
  8
0
 62
256
370
-1
  6
ByLayer
 10
443.0508652763321606
 20
59.913780286484446
 30
0.0
 11
483.0508652763321606
 21
59.9137802864844318
 31
0.0
  0
ARC
  5
47
100
AcDbEntity
  8
0
 62
256
370
-1
  6
ByLayer
100
AcDbCircle
 10
443.0508652763321606
 20
29.913780286484446
 30
0.0
 40
30.0
100
AcDbArc
 50
90.0
 51
180.0
  0
ARC
  5
48
100
AcDbEntity
  8
0
 62
256
370
-1
  6
ByLayer
100
AcDbCircle
 10
483.0508652763321606
 20
39.9137802864844389
 30
0.0
 40
20.0
100
AcDbArc
 50
180.0
 51
270.0
  0
LINE
  5
49
100
AcDbEntity
100
AcDbLine
  8
0
 62
256
370
-1
  6
ByLayer
 10
413.0508652763321606
 20
29.9142287025397664
 30
0.0
 11
413.0508652763321606
 21
-20.0857712974602336
 31
0.0
  0
ARC
  5
4A
100
AcDbEntity
  8
0
 62
256
370
-1
  6
ByLayer
100
AcDbCircle
 10
443.0513136923875095
 20
-20.0857712974602478
 30
0.0
 40
30.0
100
AcDbArc
 50
180.0
 51
270.0
  0
LINE
  5
4B
100
AcDbEntity
100
AcDbLine
  8
0
 62
256
370
-1
  6
ByLayer
 10
443.0513136923875095
 20
-50.0857712974602478
 30
0.0
 11
543.0513136923875663
 21
-50.0857712974602478
 31
0.0
  0
ARC
  5
4C
100
AcDbEntity
  8
0
 62
256
370
-1
  6
ByLayer
100
AcDbCircle
 10
543.0513136923875663
 20
-70.0857712974602407
 30
0.0
 40
20.0
100
AcDbArc
 50
0.0
 51
90.0
  0
LINE
  5
4D
100
AcDbEntity
100
AcDbLine
  8
0
 62
256
370
-1
  6
ByLayer
 10
563.0513136923875663
 20
-120.0857712974602407
 30
0.0
 11
563.0513136923875663
 21
-70.0857712974602407
 31
0.0
  0
LINE
  5
4E
100
AcDbEntity
100
AcDbLine
  8
0
 62
256
370
-1
  6
ByLayer
 10
483.0508652763321606
 20
59.9137802864844318
 30
0.0
 11
533.0508652763321606
 21
59.9137802864844318
 31
0.0
  0
LINE
  5
4F
100
AcDbEntity
100
AcDbLine
  8
0
 62
256
370
-1
  6
ByLayer
 10
483.0508652763321606
 20
19.9137802864844389
 30
0.0
 11
533.0508652763321606
 21
19.9137802864844389
 31
0.0
  0
ARC
  5
50
100
AcDbEntity
  8
0
 62
256
370
-1
  6
ByLayer
100
AcDbCircle
 10
543.0513136923875663
 20
-120.0857712974602407
 30
0.0
 40
20.0
100
AcDbArc
 50
270.0
 51
0.0
  0
LINE
  5
51
100
AcDbEntity
100
AcDbLine
  8
0
 62
256
370
-1
  6
ByLayer
 10
543.0513136923875663
 20
-140.0857712974602407
 30
0.0
 11
493.0513136923874526
 21
-140.0857712974602407
 31
0.0
  0
ARC
  5
52
100
AcDbEntity
  8
0
 62
256
370
-1
  6
ByLayer
100
AcDbCircle
 10
313.0502114735401165
 20
-110.0857712974602123
 30
0.0
 40
30.0
100
AcDbArc
 50
180.0
 51
270.0
  0
ARC
  5
53
100
AcDbEntity
  8
0
 62
256
370
-1
  6
ByLayer
100
AcDbCircle
 10
433.0508652763321606
 20
79.9137802864844531
 30
0.0
 40
30.0
100
AcDbArc
 50
360.0
 51
89.9999999999999858
  0
LINE
  5
54
100
AcDbEntity
100
AcDbLine
  8
0
 62
256
370
-1
  6
ByLayer
 10
433.0508652763322175
 20
109.9137802864844673
 30
0.0
 11
383.0508652763321606
 21
109.9137802864843962
 31
0.0
  0
MTEXT
  5
55
100
AcDbEntity
100
AcDbMText
  8
0
 62
256
370
-1
  6
ByLayer
 10
465.2652377053686337
 20
-35.4415983341204637
 30
0.0
 40
10.0
 41
100.0
 71
1
 72
2
  1
2*A
  7
normallatin1
 50
0.0
 73
1
 44
1.0
  0
MTEXT
  5
56
100
AcDbEntity
100
AcDbMText
  8
0
 62
256
370
-1
  6
ByLayer
 10
400.6031726596064573
 20
8.4833613033799011
 30
0.0
 40
10.0
 41
100.0
 71
1
 72
2
  1
A
  7
normallatin1
 50
0.0
 73
1
 44
1.0
  0
MTEXT
  5
57
100
AcDbEntity
100
AcDbMText
  8
0
 62
256
370
-1
  6
ByLayer
 10
571.21299442758027
 20
-87.0330030013419957
 30
0.0
 40
10.0
 41
100.0
 71
1
 72
2
  1
A
  7
normallatin1
 50
0.0
 73
1
 44
1.0
  0
MTEXT
  5
58
100
AcDbEntity
100
AcDbMText
  8
0
 62
256
370
-1
  6
ByLayer
 10
517.7992380729660908
 20
-145.4739364246257765
 30
0.0
 40
10.0
 41
100.0
 71
1
 72
2
  1
A
  7
normallatin1
 50
0.0
 73
1
 44
1.0
  0
MTEXT
  5
59
100
AcDbEntity
100
AcDbMText
  8
0
 62
256
370
-1
  6
ByLayer
 10
507.2421662287603681
 20
11.8138661113735068
 30
0.0
 40
10.0
 41
100.0
 71
1
 72
2
  1
A
  7
normallatin1
 50
0.0
 73
1
 44
1.0
  0
MTEXT
  5
5A
100
AcDbEntity
100
AcDbMText
  8
0
 62
256
370
-1
  6
ByLayer
 10
510.9654192452438224
 20
73.4439149875946242
 30
0.0
 40
10.0
 41
100.0
 71
1
 72
2
  1
A
  7
normallatin1
 50
0.0
 73
1
 44
1.0
  0
MTEXT
  5
5B
100
AcDbEntity
100
AcDbMText
  8
0
 62
256
370
-1
  6
ByLayer
 10
411.6001224973217063
 20
124.1084338827802043
 30
0.0
 40
10.0
 41
100.0
 71
1
 72
2
  1
A
  7
normallatin1
 50
0.0
 73
1
 44
1.0
  0
MTEXT
  5
5C
100
AcDbEntity
100
AcDbMText
  8
0
 62
256
370
-1
  6
ByLayer
 10
468.8431738847116321
 20
73.0266200160741903
 30
0.0
 40
10.0
 41
100.0
 71
1
 72
2
  1
E
  7
normallatin1
 50
0.0
 73
1
 44
1.0
  0
MTEXT
  5
5D
100
AcDbEntity
100
AcDbMText
  8
0
 62
256
370
-1
  6
ByLayer
 10
462.0928140512930327
 20
112.3014408650552838
 30
0.0
 40
10.0
 41
100.0
 71
1
 72
2
  1
B
  7
normallatin1
 50
0.0
 73
1
 44
1.0
  0
MTEXT
  5
5E
100
AcDbEntity
100
AcDbMText
  8
0
 62
256
370
-1
  6
ByLayer
 10
407.4762663081787082
 20
57.0712240461756295
 30
0.0
 40
10.0
 41
100.0
 71
1
 72
2
  1
B
  7
normallatin1
 50
0.0
 73
1
 44
1.0
  0
MTEXT
  5
5F
100
AcDbEntity
100
AcDbMText
  8
0
 62
256
370
-1
  6
ByLayer
 10
411.7719498385359884
 20
-46.6388497581650299
 30
0.0
 40
10.0
 41
100.0
 71
1
 72
2
  1
B
  7
normallatin1
 50
0.0
 73
1
 44
1.0
  0
MTEXT
  5
60
100
AcDbEntity
100
AcDbMText
  8
0
 62
256
370
-1
  6
ByLayer
 10
467.0021666574156711
 20
18.41007227295988
 30
0.0
 40
10.0
 41
100.0
 71
1
 72
2
  1
C
  7
normallatin1
 50
0.0
 73
1
 44
1.0
  0
MTEXT
  5
61
100
AcDbEntity
100
AcDbMText
  8
0
 62
256
370
-1
  6
ByLayer
 10
566.4165569313989863
 20
-47.2525188339303597
 30
0.0
 40
10.0
 41
100.0
 71
1
 72
2
  1
C
  7
normallatin1
 50
0.0
 73
1
 44
1.0
  0
MTEXT
  5
62
100
AcDbEntity
100
AcDbMText
  8
0
 62
256
370
-1
  6
ByLayer
 10
567.6438950829297028
 20
-136.2345348199031321
 30
0.0
 40
10.0
 41
100.0
 71
1
 72
2
  1
C
  7
normallatin1
 50
0.0
 73
1
 44
1.0
  0
MTEXT
  5
63
100
AcDbEntity
100
AcDbMText
  8
0
 62
256
370
-1
  6
ByLayer
 10
281.3059043308271043
 20
-138.9346787532706173
 30
0.0
 40
10.0
 41
100.0
 71
1
 72
2
  1
B
  7
normallatin1
 50
0.0
 73
1
 44
1.0
  0
MTEXT
  5
64
100
AcDbEntity
100
AcDbMText
  8
0
 62
256
370
-1
  6
ByLayer
 10
553.2840387100211501
 20
21.6011514669396014
 30
0.0
 40
10.0
 41
100.0
 71
1
 72
2
  1
C
  7
normallatin1
 50
0.0
 73
1
 44
1.0
  0
MTEXT
  5
65
100
AcDbEntity
100
AcDbMText
  8
0
 62
256
370
-1
  6
ByLayer
 10
554.7568444918579189
 20
62.3487780977574886
 30
0.0
 40
10.0
 41
100.0
 71
1
 72
2
  1
C
  7
normallatin1
 50
0.0
 73
1
 44
1.0
  0
ARC
  5
66
100
AcDbEntity
  8
0
 62
256
370
-1
  6
ByLayer
100
AcDbCircle
 10
383.0508652763321606
 20
89.9137802864843962
 30
0.0
 40
20.0
100
AcDbArc
 50
90.0
 51
180.0
  0
LINE
  5
67
100
AcDbEntity
100
AcDbLine
  8
0
 62
256
370
-1
  6
ByLayer
 10
363.0508652763321606
 20
89.9137802864843962
 30
0.0
 11
363.0508652763321606
 21
-10.0862197135156038
 31
0.0
  0
ARC
  5
68
100
AcDbEntity
  8
0
 62
256
370
-1
  6
ByLayer
100
AcDbCircle
 10
343.0508652763321606
 20
-10.0862197135156038
 30
0.0
 40
20.0
100
AcDbArc
 50
270.0
 51
0.0
  0
MTEXT
  5
69
100
AcDbEntity
100
AcDbMText
  8
0
 62
256
370
-1
  6
ByLayer
 10
367.6434466668742971
 20
-26.2349832359584951
 30
0.0
 40
10.0
 41
100.0
 71
1
 72
2
  1
C
  7
normallatin1
 50
0.0
 73
1
 44
1.0
  0
ARC
  5
6A
100
AcDbEntity
  8
0
 62
256
370
-1
  6
ByLayer
100
AcDbCircle
 10
193.0508652763321606
 20
-10.0862197135156038
 30
0.0
 40
20.0
100
AcDbArc
 50
180.0
 51
270.0
  0
ARC
  5
6B
100
AcDbEntity
  8
0
 62
256
370
-1
  6
ByLayer
100
AcDbCircle
 10
253.049763057484796
 20
89.9142287025397877
 30
0.0
 40
30.0
100
AcDbArc
 50
0.0
 51
90.0
  0
LINE
  5
6C
100
AcDbEntity
100
AcDbLine
  8
0
 62
256
370
-1
  6
ByLayer
 10
253.049763057484796
 20
119.9142287025397877
 30
0.0
 11
203.0497630574847392
 21
119.9142287025397167
 31
0.0
  0
ARC
  5
6D
100
AcDbEntity
  8
0
 62
256
370
-1
  6
ByLayer
100
AcDbCircle
 10
203.0497630574847392
 20
89.9137802864843962
 30
0.0
 40
30.0
100
AcDbArc
 50
90.0
 51
180.0
  0
LINE
  5
6E
100
AcDbEntity
100
AcDbLine
  8
0
 62
256
370
-1
  6
ByLayer
 10
173.0497630574847392
 20
89.9137802864843962
 30
0.0
 11
173.0508652763321606
 21
-10.086219713515602
 31
0.0
  0
MTEXT
  5
6F
100
AcDbEntity
100
AcDbMText
  8
0
 62
256
370
-1
  6
ByLayer
 10
282.9014439278166719
 20
124.5748223803619652
 30
0.0
 40
10.0
 41
100.0
 71
1
 72
2
  1
B
  7
normallatin1
 50
0.0
 73
1
 44
1.0
  0
MTEXT
  5
70
100
AcDbEntity
100
AcDbMText
  8
0
 62
256
370
-1
  6
ByLayer
 10
168.1453267596998842
 20
124.5748223803619652
 30
0.0
 40
10.0
 41
100.0
 71
1
 72
2
  1
B
  7
normallatin1
 50
0.0
 73
1
 44
1.0
  0
MTEXT
  5
71
100
AcDbEntity
100
AcDbMText
  8
0
 62
256
370
-1
  6
ByLayer
 10
168.2009970431419674
 20
-28.0759904632544846
 30
0.0
 40
10.0
 41
100.0
 71
1
 72
2
  1
C
  7
normallatin1
 50
0.0
 73
1
 44
1.0
  0
MTEXT
  5
72
100
AcDbEntity
100
AcDbMText
  8
0
 62
256
370
-1
  6
ByLayer
 10
144.8259018806179483
 20
50.9345332885224167
 30
0.0
 40
10.0
 41
100.0
 71
1
 72
2
  1
2*A
  7
normallatin1
 50
0.0
 73
1
 44
1.0
  0
MTEXT
  5
73
100
AcDbEntity
100
AcDbMText
  8
0
 62
256
370
-1
  6
ByLayer
 10
225.0938169907220185
 20
135.5128599868032779
 30
0.0
 40
10.0
 41
100.0
 71
1
 72
2
  1
A
  7
normallatin1
 50
0.0
 73
1
 44
1.0
  0
MTEXT
  5
74
100
AcDbEntity
100
AcDbMText
  8
0
 62
256
370
-1
  6
ByLayer
 10
219.6935291239882417
 20
-15.3417268941332576
 30
0.0
 40
10.0
 41
100.0
 71
1
 72
2
  1
3*A
  7
normallatin1
 50
0.0
 73
1
 44
1.0
  0
MTEXT
  5
75
100
AcDbEntity
100
AcDbMText
  8
0
 62
256
370
-1
  6
ByLayer
 10
338.1316607466969799
 20
47.8661879096957676
 30
0.0
 40
10.0
 41
100.0
 71
1
 72
2
  1
2*A
  7
normallatin1
 50
0.0
 73
1
 44
1.0
  0
MTEXT
  5
76
100
AcDbEntity
100
AcDbMText
  8
0
 62
256
370
-1
  6
ByLayer
 10
359.0520796061596798
 20
117.9772495688941234
 30
0.0
 40
10.0
 41
100.0
 71
1
 72
2
  1
C
  7
normallatin1
 50
0.0
 73
1
 44
1.0
  0
ARC
  5
77
100
AcDbEntity
  8
0
 62
256
370
-1
  6
ByLayer
100
AcDbCircle
 10
493.0513136923874526
 20
-120.0857712974601554
 30
0.0
 40
20.0
100
AcDbArc
 50
225.0000000000000284
 51
270.0
  0
ARC
  5
78
100
AcDbEntity
  8
0
 62
256
370
-1
  6
ByLayer
100
AcDbCircle
 10
464.7670424449255506
 20
-148.3700425449218869
 30
0.0
 40
20.0
100
AcDbArc
 50
44.9999999999999858
 51
89.9999999999999858
  0
ARC
  5
79
100
AcDbEntity
  8
0
 62
256
370
-1
  6
ByLayer
100
AcDbCircle
 10
464.7670424449255506
 20
-172.0100425449221575
 30
0.0
 40
43.6399999999999579
100
AcDbArc
 50
89.9999999999999858
 51
134.9999999999999432
  0
ARC
  5
7A
100
AcDbEntity
  8
0
 62
256
370
-1
  6
ByLayer
100
AcDbCircle
 10
403.0507625829637846
 20
-110.2937626829602493
 30
0.0
 40
43.6399999999999579
100
AcDbArc
 50
270.0
 51
314.9999999999999432
  0
ARC
  5
7B
100
AcDbEntity
  8
0
 62
256
370
-1
  6
ByLayer
100
AcDbCircle
 10
313.0502114735401165
 20
-120.0857712974601554
 30
0.0
 40
20.0
100
AcDbArc
 50
270.0
 51
314.9999999999999432
  0
ARC
  5
7C
100
AcDbEntity
  8
0
 62
256
370
-1
  6
ByLayer
100
AcDbCircle
 10
341.3344827210020185
 20
-148.3700425449221143
 30
0.0
 40
20.0
100
AcDbArc
 50
89.9999999999999858
 51
135.0000000000000284
  0
ARC
  5
7D
100
AcDbEntity
  8
0
 62
256
370
-1
  6
ByLayer
100
AcDbCircle
 10
341.3344827210020185
 20
-172.0100425449221007
 30
0.0
 40
43.6399999999999579
100
AcDbArc
 50
45.0000000000000284
 51
89.9999999999999858
  0
ARC
  5
7E
100
AcDbEntity
  8
0
 62
256
370
-1
  6
ByLayer
100
AcDbCircle
 10
403.0507625829637846
 20
-110.2937626829602493
 30
0.0
 40
43.6399999999999579
100
AcDbArc
 50
225.0000000000000284
 51
270.0
  0
MTEXT
  5
7F
100
AcDbEntity
100
AcDbMText
  8
0
 62
256
370
-1
  6
ByLayer
 10
438.1980744136806152
 20
-124.8365577918214484
 30
0.0
 40
10.0
 41
100.0
 71
7
 72
2
  1
D
  7
normallatin1
 50
360.0
 73
1
 44
1.0
  0
MTEXT
  5
80
100
AcDbEntity
100
AcDbMText
  8
0
 62
256
370
-1
  6
ByLayer
 10
373.954593044497642
 20
-126.7542736535881005
 30
0.0
 40
10.0
 41
100.0
 71
7
 72
2
  1
D
  7
normallatin1
 50
360.0
 73
1
 44
1.0
  0
LINE
  5
81
100
AcDbEntity
100
AcDbLine
  8
0
 62
256
370
-1
  6
ByLayer
 10
283.0497630574848245
 20
89.9142287025397877
 30
0.0
 11
283.0497630574848245
 21
39.9142287025397877
 31
0.0
  0
LINE
  5
82
100
AcDbEntity
100
AcDbLine
  8
0
 62
256
370
-1
  6
ByLayer
 10
283.0497630574848245
 20
39.9142287025397877
 30
0.0
 11
283.0497630574848245
 21
-110.0857712974602123
 31
0.0
  0
MTEXT
  5
83
100
AcDbEntity
100
AcDbMText
  8
0
 62
256
370
-1
  6
ByLayer
 10
268.0356370531598031
 20
71.0259467497025412
 30
0.0
 40
10.0
 41
100.0
 71
1
 72
2
  1
A
  7
normallatin1
 50
0.0
 73
1
 44
1.0
  0
MTEXT
  5
84
100
AcDbEntity
100
AcDbMText
  8
0
 62
256
370
-1
  6
ByLayer
 10
293.7621500838077395
 20
-64.6157071467438726
 30
0.0
 40
10.0
 41
100.0
 71
1
 72
2
  1
F
  7
normallatin1
 50
0.0
 73
0
 44
1.0
  0
LINE
  5
85
100
AcDbEntity
100
AcDbLine
  8
0
 62
256
370
-1
  6
ByLayer
 10
278.6344164536028529
 20
-45.0862197135156038
 30
0.0
 11
278.6344164536028529
 21
-15.0862197135156038
 31
0.0
  0
LINE
  5
86
100
AcDbEntity
100
AcDbLine
  8
0
 62
256
370
-1
  6
ByLayer
 10
287.4155068148837131
 20
-45.0512285668776968
 30
0.0
 11
287.4155068148837131
 21
-15.0512285668777004
 31
0.0
  0
LINE
  5
87
100
AcDbEntity
100
AcDbLine
  8
0
 62
256
370
-1
  6
ByLayer
 10
278.6344164536028529
 20
-30.0862197135156038
 30
0.0
 11
193.0508652763321606
 21
-30.0862197135156038
 31
0.0
  0
LINE
  5
88
100
AcDbEntity
100
AcDbLine
  8
0
 62
256
370
-1
  6
ByLayer
 10
343.0508652763321606
 20
-30.0862197135156038
 30
0.0
 11
287.4155068148837131
 21
-30.0862197135156038
 31
0.0
  0
MTEXT
  5
89
100
AcDbEntity
100
AcDbMText
  8
0
 62
256
370
-1
  6
ByLayer
 10
291.9289785403304336
 20
7.2708105147837578
 30
0.0
 40
10.0
 41
100.0
 71
1
 72
2
  1
F
  7
normallatin1
 50
0.0
 73
0
 44
1.0
  0
ARC
  5
8A
100
AcDbEntity
  8
0
 62
256
370
-1
  6
ByLayer
100
AcDbCircle
 10
954.8425156877875679
 20
19.312563133540479
 30
0.0
 40
41.0
100
AcDbArc
 50
90.0
 51
180.0
  0
ARC
  5
8B
100
AcDbEntity
  8
0
 62
256
370
-1
  6
ByLayer
100
AcDbCircle
 10
954.8425156877875679
 20
19.312563133540479
 30
0.0
 40
19.0
100
AcDbArc
 50
90.0
 51
180.0
  0
ARC
  5
8C
100
AcDbEntity
  8
0
 62
256
370
200
  6
ByLayer
100
AcDbCircle
 10
954.8425156877875679
 20
19.312563133540479
 30
0.0
 40
30.0
100
AcDbArc
 50
90.0
 51
180.0
  0
DIMENSION
  5
8D
100
AcDbEntity
  8
0
 62
256
370
-1
  6
ByLayer
100
AcDbDimension
 10
954.8425156877875679
 20
19.312563133540479
 30
0.0
 11
945.5617391847141562
 21
31.2449900660634654
 31
0.0
 70
4
 71
5
 72
1
 41
1.0
 42
0.0
  1

  3
Standard
100
AcDbRadialDimension
 15
933.6293122521911982
 25
40.5257665691369056
 35
0.0
 40
0.0
  0
DIMENSION
  5
8E
100
AcDbEntity
  8
0
 62
256
370
-1
  6
ByLayer
100
AcDbDimension
 10
954.8425156877875679
 20
19.312563133540479
 30
0.0
 11
952.5840409602122918
 21
28.7287681496233027
 31
0.0
 70
4
 71
5
 72
1
 41
1.0
 42
0.0
  1

  3
Standard
100
AcDbRadialDimension
 15
946.9173619651380704
 25
36.5807980888674109
 35
0.0
 40
0.0
  0
LINE
  5
8F
100
AcDbEntity
100
AcDbLine
  8
0
 62
256
370
-1
  6
ByLayer
 10
917.4354953448173546
 20
36.0969257684639686
 30
0.0
 11
919.8868276256183663
 21
35.4532931361338797
 31
0.0
  0
LINE
  5
90
100
AcDbEntity
100
AcDbLine
  8
0
 62
256
370
-1
  6
ByLayer
 10
919.8868276256183663
 20
35.4532931361338797
 30
0.0
 11
919.5459948131590409
 21
34.6936849087302193
 31
0.0
  0
LINE
  5
91
100
AcDbEntity
100
AcDbLine
  8
0
 62
256
370
-1
  6
ByLayer
 10
919.5459948131590409
 20
34.6936849087302193
 30
0.0
 11
917.4354953448173546
 21
36.0969257684639686
 31
0.0
  0
LINE
  5
92
100
AcDbEntity
100
AcDbLine
  8
0
 62
256
370
-1
  6
ByLayer
 10
954.8425156877875679
 20
19.312563133540479
 30
0.0
 11
917.4354953448173546
 21
36.0969257684639473
 31
0.0
  0
ARC
  5
93
100
AcDbEntity
  8
0
 62
256
370
-1
  6
ByLayer
100
AcDbCircle
 10
854.8425156877875679
 20
19.312563133540479
 30
0.0
 40
9.0
100
AcDbArc
 50
90.0
 51
180.0
  0
ARC
  5
94
100
AcDbEntity
  8
0
 62
256
370
-1
  6
ByLayer
100
AcDbCircle
 10
854.8425156877875679
 20
19.312563133540479
 30
0.0
 40
31.0
100
AcDbArc
 50
90.0
 51
180.0
  0
ARC
  5
95
100
AcDbEntity
  8
0
 62
256
370
200
  6
ByLayer
100
AcDbCircle
 10
854.8425156877875679
 20
19.312563133540479
 30
0.0
 40
20.0
100
AcDbArc
 50
90.0
 51
180.0
  0
DIMENSION
  5
96
100
AcDbEntity
  8
0
 62
256
370
-1
  6
ByLayer
100
AcDbDimension
 10
854.8425156877875679
 20
19.312563133540479
 30
0.0
 11
853.5528515728890397
 21
24.0138811902925724
 31
0.0
 70
4
 71
5
 72
1
 41
1.0
 42
0.0
  1

  3
Standard
100
AcDbRadialDimension
 15
849.3065308836396525
 25
26.4085389119830367
 35
0.0
 40
0.0
  0
DIMENSION
  5
97
100
AcDbEntity
  8
0
 62
256
370
-1
  6
ByLayer
100
AcDbDimension
 10
854.8425156877875679
 20
19.312563133540479
 30
0.0
 11
840.9732650063450592
 21
26.4826057090979248
 31
0.0
 70
4
 71
5
 72
1
 41
1.0
 42
0.0
  1

  3
Standard
100
AcDbRadialDimension
 15
825.7943934304454388
 25
30.1387625277188249
 35
0.0
 40
0.0
  0
LINE
  5
98
100
AcDbEntity
100
AcDbLine
  8
0
 62
256
370
-1
  6
ByLayer
 10
934.9086587628094094
 20
28.9092707859673013
 30
0.0
 11
935.3635195388235388
 21
29.9230111746656782
 31
0.0
  0
LINE
  5
99
100
AcDbEntity
100
AcDbLine
  8
0
 62
256
370
-1
  6
ByLayer
 10
935.5162417965784698
 20
29.2455681893111397
 30
0.0
 11
934.2490663107054161
 21
29.8141441593288832
 31
0.0
  0
LINE
  5
9A
100
AcDbEntity
100
AcDbLine
  8
0
 62
256
370
-1
  6
ByLayer
 10
934.2490663107054161
 20
29.8141441593288832
 30
0.0
 11
935.5519428630794891
 21
31.3607594515439558
 31
0.0
  0
LINE
  5
9B
100
AcDbEntity
100
AcDbLine
  8
0
 62
256
370
-1
  6
ByLayer
 10
936.8451230581199525
 20
30.1715980931734826
 30
0.0
 11
937.5794236404763069
 21
30.4510378995155833
 31
0.0
  0
LINE
  5
9C
100
AcDbEntity
100
AcDbLine
  8
0
 62
256
370
-1
  6
ByLayer
 10
937.5794236404763069
 20
30.4510378995155833
 30
0.0
 11
936.5559868944443451
 21
28.1701220249442308
 31
0.0
  0
LINE
  5
9D
100
AcDbEntity
100
AcDbLine
  8
0
 62
256
370
-1
  6
ByLayer
 10
839.7287340319911664
 20
32.411173901897314
 30
0.0
 11
841.8905942740159389
 21
31.0884293270645422
 31
0.0
  0
LINE
  5
9E
100
AcDbEntity
100
AcDbLine
  8
0
 62
256
370
-1
  6
ByLayer
 10
841.8905942740159389
 20
31.0884293270645422
 30
0.0
 11
841.3453192039154374
 21
30.459265784640877
 31
0.0
  0
LINE
  5
9F
100
AcDbEntity
100
AcDbLine
  8
0
 62
256
370
-1
  6
ByLayer
 10
841.3453192039154374
 20
30.459265784640877
 30
0.0
 11
839.7287340319911664
 21
32.411173901897314
 31
0.0
  0
LINE
  5
A0
100
AcDbEntity
100
AcDbLine
  8
0
 62
256
370
-1
  6
ByLayer
 10
854.8425156877875679
 20
19.312563133540479
 30
0.0
 11
839.7287340319911664
 21
32.411173901897314
 31
0.0
  0
MTEXT
  5
A1
100
AcDbEntity
100
AcDbMText
  8
0
 62
256
370
-1
  6
ByLayer
 10
847.055139364063848
 20
28.243092709035384
 30
0.0
 40
2.5
 41
30.0
 71
5
 72
2
  1
20
  7
standard
 50
319.0856167799749983
 73
1
 44
1.0
  0
LINE
  5
A2
100
AcDbEntity
100
AcDbLine
  8
0
 62
256
370
-1
  6
ByLayer
 10
913.8425156877875679
 20
19.312563133540479
 30
0.0
 11
935.8425156877875679
 21
19.312563133540479
 31
0.0
  0
LINE
  5
A3
100
AcDbEntity
100
AcDbLine
  8
0
 62
256
370
-1
  6
ByLayer
 10
954.8425156877875679
 20
60.312563133540479
 30
0.0
 11
954.8425156877875679
 21
38.312563133540479
 31
0.0
  0
LINE
  5
A4
100
AcDbEntity
100
AcDbLine
  8
0
 62
256
370
-1
  6
ByLayer
 10
823.8425156877875679
 20
19.312563133540479
 30
0.0
 11
845.8425156877875679
 21
19.312563133540479
 31
0.0
  0
LINE
  5
A5
100
AcDbEntity
100
AcDbLine
  8
0
 62
256
370
-1
  6
ByLayer
 10
854.8425156877875679
 20
28.312563133540479
 30
0.0
 11
854.8425156877875679
 21
50.312563133540479
 31
0.0
  0
LINE
  5
A6
100
AcDbEntity
100
AcDbLine
  8
0
 62
256
370
200
  6
ByLayer
 10
824.8425156877875679
 20
-50.687436866459521
 30
0.0
 11
864.8425156877875679
 21
-50.687436866459521
 31
0.0
  0
LINE
  5
A7
100
AcDbEntity
100
AcDbLine
  8
0
 62
256
370
200
  6
ByLayer
 10
844.8425156877875679
 20
-30.687436866459521
 30
0.0
 11
844.8425156877875679
 21
-70.687436866459521
 31
0.0
  0
LINE
  5
A8
100
AcDbEntity
100
AcDbLine
  8
0
 62
256
370
-1
  6
ByLayer
 10
855.7915156877875233
 20
-30.6014368664595082
 30
0.0
 11
833.7915156877875233
 21
-30.6014368664595082
 31
0.0
  0
LINE
  5
A9
100
AcDbEntity
100
AcDbLine
  8
0
 62
256
370
-1
  6
ByLayer
 10
833.7915156877875233
 20
-30.6014368664595082
 30
0.0
 11
833.7915156877875233
 21
-39.6014368664595082
 31
0.0
  0
LINE
  5
AA
100
AcDbEntity
100
AcDbLine
  8
0
 62
256
370
-1
  6
ByLayer
 10
833.7915156877875233
 20
-39.6014368664595082
 30
0.0
 11
824.7915156877875233
 21
-39.6014368664595082
 31
0.0
  0
LINE
  5
AB
100
AcDbEntity
100
AcDbLine
  8
0
 62
256
370
-1
  6
ByLayer
 10
824.7915156877875233
 20
-39.6014368664595082
 30
0.0
 11
824.7915156877875233
 21
-61.6014368664595153
 31
0.0
  0
LINE
  5
AC
100
AcDbEntity
100
AcDbLine
  8
0
 62
256
370
-1
  6
ByLayer
 10
824.7915156877875233
 20
-61.6014368664595153
 30
0.0
 11
833.7915156877875233
 21
-61.6014368664595153
 31
0.0
  0
LINE
  5
AD
100
AcDbEntity
100
AcDbLine
  8
0
 62
256
370
-1
  6
ByLayer
 10
833.7915156877875233
 20
-61.6014368664595153
 30
0.0
 11
833.7915156877875233
 21
-70.6014368664595082
 31
0.0
  0
LINE
  5
AE
100
AcDbEntity
100
AcDbLine
  8
0
 62
256
370
-1
  6
ByLayer
 10
833.7915156877875233
 20
-70.6014368664595082
 30
0.0
 11
855.7915156877875233
 21
-70.6014368664595082
 31
0.0
  0
LINE
  5
AF
100
AcDbEntity
100
AcDbLine
  8
0
 62
256
370
-1
  6
ByLayer
 10
855.7915156877875233
 20
-70.6014368664595082
 30
0.0
 11
855.7915156877875233
 21
-61.6014368664595153
 31
0.0
  0
LINE
  5
B0
100
AcDbEntity
100
AcDbLine
  8
0
 62
256
370
-1
  6
ByLayer
 10
855.7915156877875233
 20
-61.6014368664595153
 30
0.0
 11
864.7915156877875233
 21
-61.6014368664595153
 31
0.0
  0
LINE
  5
B1
100
AcDbEntity
100
AcDbLine
  8
0
 62
256
370
-1
  6
ByLayer
 10
864.7915156877875233
 20
-61.6014368664595153
 30
0.0
 11
864.7915156877875233
 21
-39.6014368664595082
 31
0.0
  0
LINE
  5
B2
100
AcDbEntity
100
AcDbLine
  8
0
 62
256
370
-1
  6
ByLayer
 10
864.7915156877875233
 20
-39.6014368664595082
 30
0.0
 11
855.7915156877875233
 21
-39.6014368664595082
 31
0.0
  0
LINE
  5
B3
100
AcDbEntity
100
AcDbLine
  8
0
 62
256
370
-1
  6
ByLayer
 10
855.7915156877875233
 20
-39.6014368664595082
 30
0.0
 11
855.7915156877875233
 21
-30.6014368664595082
 31
0.0
  0
MTEXT
  5
B4
100
AcDbEntity
100
AcDbMText
  8
0
 62
256
370
-1
  6
ByLayer
 10
871.7915156877875233
 20
-32.6014368664595082
 30
0.0
 40
10.0
 41
100.0
 71
1
 72
2
  1
E
  7
normallatin1
 50
0.0
 73
1
 44
1.0
  0
DIMENSION
  5
B5
100
AcDbEntity
  8
0
 62
256
370
-1
  6
ByLayer
100
AcDbDimension
 10
855.7915156877875233
 20
-26.6014368664595082
 30
0.0
 11
844.7915156877875233
 21
-24.7264368664595082
 31
0.0
 70
0
 71
5
 72
1
 41
1.0
 42
0.0
  1

  3
Standard
100
AcDbAlignedDimension
 13
833.7915156877875233
 23
-30.6014368664595082
 33
0.0
 14
855.7915156877875233
 24
-30.6014368664595082
 34
0.0
 50
0.0
100
AcDbRotatedDimension
  0
DIMENSION
  5
B6
100
AcDbEntity
  8
0
 62
256
370
-1
  6
ByLayer
100
AcDbDimension
 10
819.7915156877875233
 20
-70.6014368664595082
 30
0.0
 11
817.9165156877875233
 21
-50.6014368664595082
 31
0.0
 70
1
 71
5
 72
1
 41
1.0
 42
0.0
  1

  3
Standard
100
AcDbAlignedDimension
 13
833.7915156877875233
 23
-30.6014368664595082
 33
0.0
 14
833.7915156877875233
 24
-70.6014368664595082
 34
0.0
  0
DIMENSION
  5
B7
100
AcDbEntity
  8
0
 62
256
370
-1
  6
ByLayer
100
AcDbDimension
 10
871.7915156877875233
 20
-70.6014368664595082
 30
0.0
 11
869.9165156877875233
 21
-66.1014368664595082
 31
0.0
 70
1
 71
5
 72
1
 41
1.0
 42
0.0
  1

  3
Standard
100
AcDbAlignedDimension
 13
855.7915156877875233
 23
-61.6014368664595153
 33
0.0
 14
855.7915156877875233
 24
-70.6014368664595082
 34
0.0
  0
DIMENSION
  5
B8
100
AcDbEntity
  8
0
 62
256
370
-1
  6
ByLayer
100
AcDbDimension
 10
864.7915156877875233
 20
-75.6014368664595082
 30
0.0
 11
860.2915156877875233
 21
-73.7264368664595082
 31
0.0
 70
1
 71
5
 72
1
 41
1.0
 42
0.0
  1

  3
Standard
100
AcDbAlignedDimension
 13
855.7915156877875233
 23
-61.6014368664595153
 33
0.0
 14
864.7915156877875233
 24
-61.6014368664595153
 34
0.0
  0
MTEXT
  5
B9
100
AcDbEntity
100
AcDbMText
  8
0
 62
256
370
-1
  6
ByLayer
 10
974.8425156877875679
 20
39.312563133540479
 30
0.0
 40
10.0
 41
100.0
 71
1
 72
2
  1
B
  7
normallatin1
 50
0.0
 73
1
 44
1.0
  0
MTEXT
  5
BA
100
AcDbEntity
100
AcDbMText
  8
0
 62
256
370
-1
  6
ByLayer
 10
864.8425156877875679
 20
39.312563133540479
 30
0.0
 40
10.0
 41
100.0
 71
1
 72
2
  1
C
  7
normallatin1
 50
0.0
 73
1
 44
1.0
  0
MTEXT
  5
BB
100
AcDbEntity
100
AcDbMText
  8
0
 62
256
370
-1
  6
ByLayer
 10
179.2308681531362708
 20
217.6374827573797575
 30
0.0
 40
20.0
 41
100.0
 71
1
 72
2
  1
Club\~de\~Robotica\~FIUBA\PMazinger\~Z\~2011
  7
normallatin1
 50
0.0
 73
0
 44
1.0
  0
ARC
  5
BC
100
AcDbEntity
  8
0
 62
256
370
200
  6
ByLayer
100
AcDbCircle
 10
894.1977347835432965
 20
-71.6941081699498568
 30
0.0
 40
20.0
100
AcDbArc
 50
45.0000000000000639
 51
90.0000000000000142
  0
ARC
  5
BD
100
AcDbEntity
  8
0
 62
256
370
200
  6
ByLayer
100
AcDbCircle
 10
922.4820060310051986
 20
-43.409836922487905
 30
0.0
 40
20.0
100
AcDbArc
 50
224.9999999999999716
 51
270.0
  0
ARC
  5
BE
100
AcDbEntity
  8
0
 62
256
370
200
  6
ByLayer
100
AcDbCircle
 10
922.4820060310051986
 20
-19.7698369224879045
 30
0.0
 40
43.6399999999999579
100
AcDbArc
 50
270.0
 51
314.9999999999999432
  0
ARC
  5
BF
100
AcDbEntity
  8
0
 62
256
370
200
  6
ByLayer
100
AcDbCircle
 10
984.198285892966851
 20
-81.4861167844497345
 30
0.0
 40
43.6399999999999579
100
AcDbArc
 50
90.0000000000000142
 51
135.0000000000000284
  0
LINE
  5
C0
100
AcDbEntity
100
AcDbLine
  8
0
 62
256
370
-1
  6
ByLayer
 10
894.1977347835432965
 20
-51.6941081699498639
 30
0.0
 11
894.1977347835432965
 21
-62.694108169949871
 31
0.0
  0
LINE
  5
C1
100
AcDbEntity
100
AcDbLine
  8
0
 62
256
370
-1
  6
ByLayer
 10
894.1977347835432965
 20
-62.694108169949871
 30
0.0
 11
917.1977347835432965
 21
-76.6941081699498568
 31
0.0
  0
LINE
  5
C2
100
AcDbEntity
100
AcDbLine
  8
0
 62
256
370
-1
  6
ByLayer
 10
917.1977347835432965
 20
-76.6941081699498568
 30
0.0
 11
984.1977347835431829
 21
-76.6941081699498852
 31
0.0
  0
LINE
  5
C3
100
AcDbEntity
100
AcDbLine
  8
0
 62
256
370
-1
  6
ByLayer
 10
984.1977347835431829
 20
-76.6941081699498852
 30
0.0
 11
984.1977347835431829
 21
-26.6941081699498497
 31
0.0
  0
LINE
  5
C4
100
AcDbEntity
100
AcDbLine
  8
0
 62
256
370
-1
  6
ByLayer
 10
984.1977347835431829
 20
-26.6941081699498497
 30
0.0
 11
917.1977347835432965
 21
-26.6941081699498639
 31
0.0
  0
LINE
  5
C5
100
AcDbEntity
100
AcDbLine
  8
0
 62
256
370
-1
  6
ByLayer
 10
917.1977347835432965
 20
-26.6941081699498639
 30
0.0
 11
894.1977347835432965
 21
-40.6941081699498639
 31
0.0
  0
LINE
  5
C6
100
AcDbEntity
100
AcDbLine
  8
0
 62
256
370
-1
  6
ByLayer
 10
894.1977347835432965
 20
-40.6941081699498639
 30
0.0
 11
894.1977347835432965
 21
-51.6941081699498639
 31
0.0
  0
LINE
  5
C7
100
AcDbEntity
100
AcDbLine
  8
0
 62
256
370
-1
  6
ByLayer
 10
894.1977347835432965
 20
-51.6941081699498639
 30
0.0
 11
894.1977347835432965
 21
-51.6941081699498639
 31
0.0
  0
DIMENSION
  5
C8
100
AcDbEntity
  8
0
 62
256
370
-1
  6
ByLayer
100
AcDbDimension
 10
894.1977347835432965
 20
-71.6941081699498568
 30
0.0
 11
896.9928197554179405
 21
-61.9113107683882902
 31
0.0
 70
4
 71
5
 72
1
 41
1.0
 42
0.0
  1

  3
Standard
100
AcDbRadialDimension
 15
903.1420066935423847
 25
-53.8055643499515455
 35
0.0
 40
0.0
  0
DIMENSION
  5
C9
100
AcDbEntity
  8
0
 62
256
370
-1
  6
ByLayer
100
AcDbDimension
 10
922.4820060310051986
 20
-43.409836922487905
 30
0.0
 11
916.6471508832404425
 21
-51.7447088713904506
 31
0.0
 70
4
 71
5
 72
1
 41
1.0
 42
0.0
  1

  3
Standard
100
AcDbRadialDimension
 15
914.228050828888513
 25
-61.6271974206898818
 35
0.0
 40
0.0
  0
DIMENSION
  5
CA
100
AcDbEntity
  8
0
 62
256
370
-1
  6
ByLayer
100
AcDbDimension
 10
922.4820060310051986
 20
-19.7698369224879045
 30
0.0
 11
934.1827371840892056
 21
-38.282559992940044
 31
0.0
 70
4
 71
5
 72
1
 41
1.0
 42
0.0
  1

  3
Standard
100
AcDbRadialDimension
 15
942.5536497112497045
 25
-58.5200462119008051
 35
0.0
 40
0.0
  0
DIMENSION
  5
CB
100
AcDbEntity
  8
0
 62
256
370
-1
  6
ByLayer
100
AcDbDimension
 10
994.1977347835431829
 20
-76.6941081699498852
 30
0.0
 11
992.3227347835431829
 21
-51.694108169949871
 31
0.0
 70
1
 71
5
 72
1
 41
1.0
 42
0.0
  1

  3
Standard
100
AcDbAlignedDimension
 13
984.1977347835431829
 23
-26.6941081699498497
 33
0.0
 14
984.1977347835431829
 24
-76.6941081699498852
 34
0.0
  0
DIMENSION
  5
CC
100
AcDbEntity
  8
0
 62
256
370
-1
  6
ByLayer
100
AcDbDimension
 10
984.1977347835431829
 20
-84.6941081699498568
 30
0.0
 11
950.6977347835431829
 21
-82.8191081699498568
 31
0.0
 70
1
 71
5
 72
1
 41
1.0
 42
0.0
  1

  3
Standard
100
AcDbAlignedDimension
 13
917.1977347835432965
 23
-76.6941081699498568
 33
0.0
 14
984.1977347835431829
 24
-76.6941081699498568
 34
0.0
  0
DIMENSION
  5
CD
100
AcDbEntity
  8
0
 62
256
370
-1
  6
ByLayer
100
AcDbDimension
 10
917.1977347835432965
 20
-78.6941081699498568
 30
0.0
 11
905.6977347835432965
 21
-76.8191081699498568
 31
0.0
 70
0
 71
5
 72
1
 41
1.0
 42
0.0
  1

  3
Standard
100
AcDbAlignedDimension
 13
894.1977347835432965
 23
-62.694108169949871
 33
0.0
 14
917.1977347835432965
 24
-76.6941081699498568
 34
0.0
 50
0.0
100
AcDbRotatedDimension
  0
DIMENSION
  5
CE
100
AcDbEntity
  8
0
 62
256
370
-1
  6
ByLayer
100
AcDbDimension
 10
890.1977347835432965
 20
-40.6941081699498639
 30
0.0
 11
888.3227347835432965
 21
-33.6941081699498639
 31
0.0
 70
0
 71
5
 72
1
 41
1.0
 42
0.0
  1

  3
Standard
100
AcDbAlignedDimension
 13
917.1977347835432965
 23
-26.6941081699498639
 33
0.0
 14
894.1977347835432965
 24
-40.6941081699498639
 34
0.0
 50
90.0
100
AcDbRotatedDimension
  0
DIMENSION
  5
CF
100
AcDbEntity
  8
0
 62
256
370
-1
  6
ByLayer
100
AcDbDimension
 10
890.1977347835432965
 20
-62.694108169949871
 30
0.0
 11
888.3227347835432965
 21
-51.6941081699498639
 31
0.0
 70
0
 71
5
 72
1
 41
1.0
 42
0.0
  1

  3
Standard
100
AcDbAlignedDimension
 13
894.1977347835432965
 23
-40.6941081699498639
 33
0.0
 14
894.1977347835432965
 24
-62.694108169949871
 34
0.0
 50
90.0
100
AcDbRotatedDimension
  0
DIMENSION
  5
D0
100
AcDbEntity
  8
0
 62
256
370
-1
  6
ByLayer
100
AcDbDimension
 10
984.1977347835431829
 20
-21.6941081699498639
 30
0.0
 11
939.1977347835431829
 21
-19.8191081699498639
 31
0.0
 70
0
 71
5
 72
1
 41
1.0
 42
0.0
  1

  3
Standard
100
AcDbAlignedDimension
 13
894.1977347835432965
 23
-40.6941081699498639
 33
0.0
 14
984.1977347835431829
 24
-26.6941081699498639
 34
0.0
 50
0.0
100
AcDbRotatedDimension
  0
DIMENSION
  5
D1
100
AcDbEntity
  8
0
 62
256
370
-1
  6
ByLayer
100
AcDbDimension
 10
989.1977347835431829
 20
-37.8461167844497837
 30
0.0
 11
987.3227347835431829
 21
-57.2701124771998238
 31
0.0
 70
0
 71
5
 72
1
 41
1.0
 42
0.0
  1

  3
Standard
100
AcDbAlignedDimension
 13
984.1977347835431829
 23
-76.6941081699498568
 33
0.0
 14
984.198285892966851
 24
-37.8461167844497837
 34
0.0
 50
90.0
100
AcDbRotatedDimension
  0
LINE
  5
D2
100
AcDbEntity
100
AcDbLine
  8
0
 62
256
370
-1
  6
ByLayer
 10
919.0511194609275663
 20
92.5033718285010167
 30
0.0
 11
969.0511194609275663
 21
92.5033718285010167
 31
0.0
  0
LINE
  5
D3
100
AcDbEntity
100
AcDbLine
  8
0
 62
256
370
-1
  6
ByLayer
 10
969.0511194609275663
 20
70.5033718285010167
 30
0.0
 11
919.0511194609275663
 21
70.5033718285010167
 31
0.0
  0
LINE
  5
D4
100
AcDbEntity
100
AcDbLine
  8
0
 62
256
370
200
  6
ByLayer
 10
919.0511194609275663
 20
81.5033718285010167
 30
0.0
 11
969.0511194609275663
 21
81.5033718285010167
 31
0.0
  0
LINE
  5
D5
100
AcDbEntity
100
AcDbLine
  8
0
 62
256
370
-1
  6
ByLayer
 10
919.0511194609275663
 20
92.5033718285010167
 30
0.0
 11
919.0511194609275663
 21
70.5033718285010167
 31
0.0
  0
LINE
  5
D6
100
AcDbEntity
100
AcDbLine
  8
0
 62
256
370
-1
  6
ByLayer
 10
969.0511194609275663
 20
92.5033718285010167
 30
0.0
 11
969.0511194609275663
 21
70.5033718285010167
 31
0.0
  0
DIMENSION
  5
D7
100
AcDbEntity
  8
0
 62
256
370
-1
  6
ByLayer
100
AcDbDimension
 10
969.0511194609275663
 20
97.5033718285010167
 30
0.0
 11
944.0511194609275663
 21
99.3783718285010167
 31
0.0
 70
0
 71
5
 72
1
 41
1.0
 42
0.0
  1

  3
Standard
100
AcDbAlignedDimension
 13
919.0511194609275663
 23
92.5033718285010167
 33
0.0
 14
969.0511194609275663
 24
92.5033718285010167
 34
0.0
 50
0.0
100
AcDbRotatedDimension
  0
DIMENSION
  5
D8
100
AcDbEntity
  8
0
 62
256
370
-1
  6
ByLayer
100
AcDbDimension
 10
976.0511194609275663
 20
80.5033718285010167
 30
0.0
 11
974.1761194609275663
 21
81.5033718285010167
 31
0.0
 70
0
 71
5
 72
1
 41
1.0
 42
0.0
  1

  3
Standard
100
AcDbAlignedDimension
 13
969.0511194609275663
 23
82.5033718285010167
 33
0.0
 14
969.0511194609275663
 24
80.5033718285010167
 34
0.0
 50
90.0
100
AcDbRotatedDimension
  0
DIMENSION
  5
D9
100
AcDbEntity
  8
0
 62
256
370
-1
  6
ByLayer
100
AcDbDimension
 10
916.0511194609275663
 20
70.5033718285010167
 30
0.0
 11
914.1761194609275663
 21
75.5033718285010167
 31
0.0
 70
0
 71
5
 72
1
 41
1.0
 42
0.0
  1

  3
Standard
100
AcDbAlignedDimension
 13
919.0511194609275663
 23
80.5033718285010167
 33
0.0
 14
919.0511194609275663
 24
70.5033718285010167
 34
0.0
 50
90.0
100
AcDbRotatedDimension
  0
DIMENSION
  5
DA
100
AcDbEntity
  8
0
 62
256
370
-1
  6
ByLayer
100
AcDbDimension
 10
911.0511194609275663
 20
70.5033718285010167
 30
0.0
 11
909.1761194609275663
 21
81.5033718285010167
 31
0.0
 70
0
 71
5
 72
1
 41
1.0
 42
0.0
  1

  3
Standard
100
AcDbAlignedDimension
 13
919.0511194609275663
 23
92.5033718285010167
 33
0.0
 14
919.0511194609275663
 24
70.5033718285010167
 34
0.0
 50
90.0
100
AcDbRotatedDimension
  0
LINE
  5
DB
100
AcDbEntity
100
AcDbLine
  8
0
 62
256
370
-1
  6
ByLayer
 10
875.2223903055842129
 20
89.7167466928657404
 30
0.0
 11
875.2223903055842129
 21
89.7167466928657404
 31
0.0
  0
LINE
  5
DC
100
AcDbEntity
100
AcDbLine
  8
0
 62
256
370
-1
  6
ByLayer
 10
875.2223903055842129
 20
89.7167466928657404
 30
0.0
 11
875.2223903055842129
 21
89.7167466928657404
 31
0.0
  0
LINE
  5
DD
100
AcDbEntity
100
AcDbLine
  8
0
 62
256
370
-1
  6
ByLayer
 10
875.2223903055842129
 20
89.7167466928657404
 30
0.0
 11
875.2223903055842129
 21
89.7167466928657404
 31
0.0
  0
LINE
  5
DE
100
AcDbEntity
100
AcDbLine
  8
0
 62
256
370
-1
  6
ByLayer
 10
875.2223903055842129
 20
89.7167466928657404
 30
0.0
 11
875.2223903055842129
 21
89.7167466928657404
 31
0.0
  0
LINE
  5
DF
100
AcDbEntity
100
AcDbLine
  8
0
 62
256
370
-1
  6
ByLayer
 10
856.1908762678031053
 20
88.8886982140722353
 30
0.0
 11
857.0753844785679121
 21
86.5136322904847361
 31
0.0
  0
LINE
  5
E0
100
AcDbEntity
100
AcDbLine
  8
0
 62
256
370
-1
  6
ByLayer
 10
857.0753844785679121
 20
86.5136322904847361
 30
0.0
 11
856.25803493386843
 21
86.3551665624307248
 31
0.0
  0
LINE
  5
E1
100
AcDbEntity
100
AcDbLine
  8
0
 62
256
370
-1
  6
ByLayer
 10
856.25803493386843
 20
86.3551665624307248
 30
0.0
 11
856.1908762678031053
 21
88.8886982140722353
 31
0.0
  0
MTEXT
  5
E2
100
AcDbEntity
100
AcDbMText
  8
0
 62
256
370
-1
  6
ByLayer
 10
863.2242138044055082
 20
66.7167467094914173
 30
0.0
 40
2.5
 41
30.0
 71
5
 72
2
  1
100
  7
standard
 50
280.9722402378116044
 73
1
 44
1.0
  0
LINE
  5
E3
100
AcDbEntity
100
AcDbLine
  8
0
 62
256
370
-1
  6
ByLayer
 10
861.9119034474050522
 20
59.3802422350727284
 30
0.0
 11
856.1908762678031053
 21
88.8886982140722353
 31
0.0
  0
MTEXT
  5
E4
100
AcDbEntity
100
AcDbMText
  8
0
 62
256
370
-1
  6
ByLayer
 10
820.2745103128811479
 20
102.9681003882907788
 30
0.0
 40
2.5
 41
30.0
 71
5
 72
2
  1
100
  7
standard
 50
100.9722402378116328
 73
1
 44
1.0
  0
LINE
  5
E5
100
AcDbEntity
100
AcDbLine
  8
0
 62
256
370
-1
  6
ByLayer
 10
821.5868206698816039
 20
110.3046048627094677
 30
0.0
 11
827.3078478494835508
 21
80.7961488837099751
 31
0.0
  0
DIMENSION
  5
E6
100
AcDbEntity
  8
0
 62
256
370
-1
  6
ByLayer
100
AcDbDimension
 10
886.5242138044055764
 20
88.656746709491415
 30
0.0
 11
884.6492138044055764
 21
83.656746709491415
 31
0.0
 70
0
 71
5
 72
1
 41
1.0
 42
0.0
  1

  3
Standard
100
AcDbAlignedDimension
 13
865.2242138044055082
 23
78.656746709491415
 33
0.0
 14
865.2242138044055082
 24
88.656746709491415
 34
0.0
 50
90.0
100
AcDbRotatedDimension
  0
DIMENSION
  5
E7
100
AcDbEntity
  8
0
 62
256
370
-1
  6
ByLayer
100
AcDbDimension
 10
875.2242138044055082
 20
74.7167467094914173
 30
0.0
 11
870.2242138044055082
 21
76.5917467094914173
 31
0.0
 70
0
 71
5
 72
1
 41
1.0
 42
0.0
  1

  3
Standard
100
AcDbAlignedDimension
 13
865.2242138044055082
 23
88.6167467094914514
 33
0.0
 14
875.2242138044055082
 24
89.7167467094914173
 34
0.0
 50
0.0
100
AcDbRotatedDimension
  0
DIMENSION
  5
E8
100
AcDbEntity
  8
0
 62
256
370
-1
  6
ByLayer
100
AcDbDimension
 10
881.2242138044055082
 20
74.7167467094914173
 30
0.0
 11
878.2242138044055082
 21
76.5917467094914173
 31
0.0
 70
0
 71
5
 72
1
 41
1.0
 42
0.0
  1

  3
Standard
100
AcDbAlignedDimension
 13
875.2242138044055082
 23
89.7167467094914173
 33
0.0
 14
881.2242138044055082
 24
89.7167467094914173
 34
0.0
 50
0.0
100
AcDbRotatedDimension
  0
DIMENSION
  5
E9
100
AcDbEntity
  8
0
 62
256
370
-1
  6
ByLayer
100
AcDbDimension
 10
891.2242138044055082
 20
89.7167467094914173
 30
0.0
 11
889.3492138044055082
 21
84.2167467094914457
 31
0.0
 70
0
 71
5
 72
1
 41
1.0
 42
0.0
  1

  3
Standard
100
AcDbAlignedDimension
 13
865.2242138044053945
 23
78.7167467094914741
 33
0.0
 14
875.2242138044055082
 24
89.7167467094914173
 34
0.0
 50
90.0
100
AcDbRotatedDimension
  0
DIMENSION
  5
EA
100
AcDbEntity
  8
0
 62
256
370
-1
  6
ByLayer
100
AcDbDimension
 10
896.2242138044055082
 20
90.7167467094914173
 30
0.0
 11
894.3492138044055082
 21
84.7167467094914173
 31
0.0
 70
0
 71
5
 72
1
 41
1.0
 42
0.0
  1

  3
Standard
100
AcDbAlignedDimension
 13
865.2242138044055082
 23
78.7167467094914173
 33
0.0
 14
881.2242138044055082
 24
90.7167467094914173
 34
0.0
 50
90.0
100
AcDbRotatedDimension
  0
ARC
  5
EB
100
AcDbEntity
  8
0
 62
256
370
35
  6
ByLayer
100
AcDbCircle
 10
806.8201851392718709
 20
178.6552708666731917
 30
0.0
 40
100.0
100
AcDbArc
 50
-90.0
 51
-70.0
  0
ARC
  5
EC
100
AcDbEntity
  8
0
 62
256
370
35
  6
ByLayer
100
AcDbCircle
 10
875.2242138044055082
 20
-9.2832532905085259
 30
0.0
 40
100.0
100
AcDbArc
 50
90.0
 51
110.0
  0
LINE
  5
ED
100
AcDbEntity
100
AcDbLine
  8
0
 62
256
370
35
  6
ByLayer
 10
865.2242138044055082
 20
88.6267867703625143
 30
0.0
 11
875.2223903055842129
 21
89.7167466928657404
 31
0.0
  0
LINE
  5
EE
100
AcDbEntity
100
AcDbLine
  8
0
 62
256
370
35
  6
ByLayer
 10
875.2242138044055082
 20
90.7167467094914741
 30
0.0
 11
881.2242138044055082
 21
90.7167467094914173
 31
0.0
  0
LINE
  5
EF
100
AcDbEntity
100
AcDbLine
  8
0
 62
256
370
35
  6
ByLayer
 10
806.2242138044055082
 20
78.656746709491415
 30
0.0
 11
865.2242138044055082
 21
78.656746709491415
 31
0.0
  0
LINE
  5
F0
100
AcDbEntity
100
AcDbLine
  8
0
 62
256
370
35
  6
ByLayer
 10
865.2242138044055082
 20
78.6567467094914718
 30
0.0
 11
865.2242138044055082
 21
88.6267867703625143
 31
0.0
  0
LINE
  5
F1
100
AcDbEntity
100
AcDbLine
  8
0
 62
256
370
35
  6
ByLayer
 10
881.2242138044055082
 20
90.7167467094914173
 30
0.0
 11
881.2242138044055082
 21
89.7167467094914173
 31
0.0
  0
LINE
  5
F2
100
AcDbEntity
100
AcDbLine
  8
0
 62
256
370
35
  6
ByLayer
 10
881.2242138044055082
 20
89.7167467094914173
 30
0.0
 11
875.2242138044055082
 21
89.7167467094914741
 31
0.0
  0
DIMENSION
  5
F3
100
AcDbEntity
  8
0
 62
256
370
-1
  6
ByLayer
100
AcDbDimension
 10
806.2242138044055082
 20
74.7167467094914173
 30
0.0
 11
835.7242138044055082
 21
76.5917467094914173
 31
0.0
 70
0
 71
5
 72
1
 41
1.0
 42
0.0
  1

  3
Standard
100
AcDbAlignedDimension
 13
865.2242138044055082
 23
78.7167467094914173
 33
0.0
 14
806.2242138044055082
 24
78.7167467094914173
 34
0.0
 50
0.0
100
AcDbRotatedDimension
  0
MTEXT
  5
F4
100
AcDbEntity
100
AcDbMText
  8
0
 62
256
370
-1
  6
ByLayer
 10
830.314430015558969
 20
164.5997768753310595
 30
0.0
 40
10.0
 41
100.0
 71
1
 72
2
  1
Club\~de\~Robotica\~FIUBA\PMazinger\~Z\~2011
  7
normallatin1
 50
0.0
 73
0
 44
1.0
  0
MTEXT
  5
F5
100
AcDbEntity
100
AcDbMText
  8
0
 62
256
370
-1
  6
ByLayer
 10
958.4679929266948193
 20
-17.7523165383898558
 30
0.0
 40
10.0
 41
100.0
 71
7
 72
2
  1
D
  7
normallatin1
 50
360.0
 73
1
 44
1.0
  0
MTEXT
  5
F6
100
AcDbEntity
100
AcDbMText
  8
0
 62
256
370
-1
  6
ByLayer
 10
958.5563617590228205
 20
113.2225664177590971
 30
0.0
 40
10.0
 41
100.0
 71
1
 72
2
  1
A
  7
normallatin1
 50
0.0
 73
1
 44
1.0
  0
MTEXT
  5
F7
100
AcDbEntity
100
AcDbMText
  8
0
 62
256
370
-1
  6
ByLayer
 10
832.7061837646481308
 20
103.9625928534950674
 30
0.0
 40
8.0
 41
100.0
 71
1
 72
2
  1
F\~(perfil)
  7
normallatin1
 50
0.0
 73
0
 44
1.0
  0
ENDSEC
  0
SECTION
  2
OBJECTS
  0
DICTIONARY
  5
C
100
AcDbDictionary
280
0
281
1
  3
ACAD_GROUP
350
D
  3
ACAD_LAYOUT
350
1A
  3
ACAD_MLINESTYLE
350
17
  3
ACAD_PLOTSETTINGS
350
19
  3
ACAD_PLOTSTYLENAME
350
E
  3
AcDbVariableDictionary
350
F8
  0
DICTIONARY
  5
D
100
AcDbDictionary
280
0
281
1
  0
ACDBDICTIONARYWDFLT
  5
E
100
AcDbDictionary
281
1
  3
Normal
350
F
100
AcDbDictionaryWithDefault
340
F
  0
ACDBPLACEHOLDER
  5
F
  0
DICTIONARY
  5
17
100
AcDbDictionary
280
0
281
1
  3
Standard
350
18
  0
MLINESTYLE
  5
18
100
AcDbMlineStyle
  2
STANDARD
 70
0
  3

 62
256
 51
90.0
 52
90.0
 71
2
 49
0.5
 62
256
  6
BYLAYER
 49
-0.5
 62
256
  6
BYLAYER
  0
DICTIONARY
  5
19
100
AcDbDictionary
280
0
281
1
  0
DICTIONARY
  5
1A
100
AcDbDictionary
281
1
  3
Layout1
350
1E
  3
Layout2
350
26
  3
Model
350
22
  0
LAYOUT
  5
1E
100
AcDbPlotSettings
  1

  2
C:\Program Files\AutoCAD 2002\plotters\DWF ePlot (optimized for plotting).pc3
  4

  6

 40
0.0
 41
0.0
 42
0.0
 43
0.0
 44
0.0
 45
0.0
 46
0.0
 47
0.0
 48
0.0
 49
0.0
140
0.0
141
0.0
142
1.0
143
1.0
 70
688
 72
0
 73
0
 74
5
  7

 75
16
147
1.0
148
0.0
149
0.0
100
AcDbLayout
  1
Layout1
 70
1
 71
1
 10
0.0
 20
0.0
 11
420.0
 21
297.0
 12
0.0
 22
0.0
 32
0.0
 14
100000000000000000000.0
 24
100000000000000000000.0
 34
100000000000000000000.0
 15
-100000000000000000000.0
 25
-100000000000000000000.0
 35
-100000000000000000000.0
146
0.0
 13
0.0
 23
0.0
 33
0.0
 16
1.0
 26
0.0
 36
0.0
 17
0.0
 27
1.0
 37
0.0
 76
0
330
1B
  0
LAYOUT
  5
22
100
AcDbPlotSettings
  1

  2
C:\Program Files\AutoCAD 2002\plotters\DWF ePlot (optimized for plotting).pc3
  4

  6

 40
0.0
 41
0.0
 42
0.0
 43
0.0
 44
0.0
 45
0.0
 46
0.0
 47
0.0
 48
0.0
 49
0.0
140
0.0
141
0.0
142
1.0
143
1.0
 70
1712
 72
0
 73
0
 74
0
  7

 75
0
147
1.0
148
0.0
149
0.0
100
AcDbLayout
  1
Model
 70
1
 71
0
 10
0.0
 20
0.0
 11
12.0
 21
9.0
 12
0.0
 22
0.0
 32
0.0
 14
0.0
 24
0.0
 34
0.0
 15
0.0
 25
0.0
 35
0.0
146
0.0
 13
0.0
 23
0.0
 33
0.0
 16
1.0
 26
0.0
 36
0.0
 17
0.0
 27
1.0
 37
0.0
 76
0
330
1F
  0
LAYOUT
  5
26
100
AcDbPlotSettings
  1

  2
C:\Program Files\AutoCAD 2002\plotters\DWF ePlot (optimized for plotting).pc3
  4

  6

 40
0.0
 41
0.0
 42
0.0
 43
0.0
 44
0.0
 45
0.0
 46
0.0
 47
0.0
 48
0.0
 49
0.0
140
0.0
141
0.0
142
1.0
143
1.0
 70
688
 72
0
 73
0
 74
5
  7

 75
16
147
1.0
148
0.0
149
0.0
100
AcDbLayout
  1
Layout2
 70
1
 71
2
 10
0.0
 20
0.0
 11
12.0
 21
9.0
 12
0.0
 22
0.0
 32
0.0
 14
0.0
 24
0.0
 34
0.0
 15
0.0
 25
0.0
 35
0.0
146
0.0
 13
0.0
 23
0.0
 33
0.0
 16
1.0
 26
0.0
 36
0.0
 17
0.0
 27
1.0
 37
0.0
 76
0
330
23
  0
DICTIONARY
  5
F8
100
AcDbDictionary
281
1
  3
DIMASSOC
350
FA
  3
HIDETEXT
350
F9
  0
DICTIONARYVAR
  5
F9
100
DictionaryVariables
280
0
  1
2
  0
DICTIONARYVAR
  5
FA
100
DictionaryVariables
280
0
  1
1
  0
ENDSEC
  0
EOF
