999
dxflib 2.0.4.8
  0
SECTION
  2
HEADER
  9
$ACADVER
  1
AC1015
  9
$HANDSEED
  5
FFFF
  9
$DIMASZ
 40
2.5
  9
$DIMGAP
 40
0.625
  9
$INSUNITS
 70
4
  9
$DIMEXO
 40
0.625
  9
$DIMTXT
 40
2.5
  9
$DIMSTYLE
  2
Standard
  9
$PLIMMIN
 10
0.0
 20
0.0
  9
$PLIMMAX
 10
210.0
 20
297.0
  9
$DIMEXE
 40
1.25
  0
ENDSEC
  0
SECTION
  2
TABLES
  0
TABLE
  2
VPORT
  5
8
100
AcDbSymbolTable
 70
1
  0
VPORT
  5
30
100
AcDbSymbolTableRecord
100
AcDbViewportTableRecord
  2
*Active
 70
0
 10
0.0
 20
0.0
 11
1.0
 21
1.0
 12
286.3055555555554861
 22
148.5
 13
0.0
 23
0.0
 14
10.0
 24
10.0
 15
10.0
 25
10.0
 16
0.0
 26
0.0
 36
1.0
 17
0.0
 27
0.0
 37
0.0
 40
297.0
 41
1.92798353909465
 42
50.0
 43
0.0
 44
0.0
 50
0.0
 51
0.0
 71
0
 72
100
 73
1
 74
3
 75
1
 76
1
 77
0
 78
0
281
0
 65
1
110
0.0
120
0.0
130
0.0
111
1.0
121
0.0
131
0.0
112
0.0
122
1.0
132
0.0
 79
0
146
0.0
  0
ENDTAB
  0
TABLE
  2
LTYPE
  5
5
100
AcDbSymbolTable
 70
21
  0
LTYPE
  5
14
100
AcDbSymbolTableRecord
100
AcDbLinetypeTableRecord
  2
ByBlock
 70
0
  3

 72
65
 73
0
 40
0.0
  0
LTYPE
  5
15
100
AcDbSymbolTableRecord
100
AcDbLinetypeTableRecord
  2
ByLayer
 70
0
  3

 72
65
 73
0
 40
0.0
  0
LTYPE
  5
16
100
AcDbSymbolTableRecord
100
AcDbLinetypeTableRecord
  2
CONTINUOUS
 70
0
  3
Solid line
 72
65
 73
0
 40
0.0
  0
LTYPE
  5
31
100
AcDbSymbolTableRecord
100
AcDbLinetypeTableRecord
  2
DOT
 70
0
  3
Dot . . . . . . . . . . . . . . . . . . . . . .
 72
65
 73
2
 40
6.3499999999999996
 49
0.0
 74
0
 49
-6.3499999999999996
 74
0
  0
LTYPE
  5
32
100
AcDbSymbolTableRecord
100
AcDbLinetypeTableRecord
  2
DOT2
 70
0
  3
Dot (.5x) .....................................
 72
65
 73
2
 40
3.1749999999999998
 49
0.0
 74
0
 49
-3.1749999999999998
 74
0
  0
LTYPE
  5
33
100
AcDbSymbolTableRecord
100
AcDbLinetypeTableRecord
  2
DOTX2
 70
0
  3
Dot (2x) .  .  .  .  .  .  .  .  .  .  .  .  .
 72
65
 73
2
 40
12.6999999999999993
 49
0.0
 74
0
 49
-12.6999999999999993
 74
0
  0
LTYPE
  5
34
100
AcDbSymbolTableRecord
100
AcDbLinetypeTableRecord
  2
DASHED
 70
0
  3
Dashed __ __ __ __ __ __ __ __ __ __ __ __ __ _
 72
65
 73
2
 40
19.0500000000000007
 49
12.6999999999999993
 74
0
 49
-6.3499999999999996
 74
0
  0
LTYPE
  5
35
100
AcDbSymbolTableRecord
100
AcDbLinetypeTableRecord
  2
DASHED2
 70
0
  3
Dashed (.5x) _ _ _ _ _ _ _ _ _ _ _ _ _ _ _ _ _
 72
65
 73
2
 40
9.5250000000000004
 49
6.3499999999999996
 74
0
 49
-3.1749999999999998
 74
0
  0
LTYPE
  5
36
100
AcDbSymbolTableRecord
100
AcDbLinetypeTableRecord
  2
DASHEDX2
 70
0
  3
Dashed (2x) ____  ____  ____  ____  ____  ___
 72
65
 73
2
 40
38.1000000000000014
 49
25.3999999999999986
 74
0
 49
-12.6999999999999993
 74
0
  0
LTYPE
  5
37
100
AcDbSymbolTableRecord
100
AcDbLinetypeTableRecord
  2
DASHDOT
 70
0
  3
Dash dot __ . __ . __ . __ . __ . __ . __ . __
 72
65
 73
4
 40
25.3999999999999986
 49
12.6999999999999993
 74
0
 49
-6.3499999999999996
 74
0
 49
0.0
 74
0
 49
-6.3499999999999996
 74
0
  0
LTYPE
  5
38
100
AcDbSymbolTableRecord
100
AcDbLinetypeTableRecord
  2
DASHDOT2
 70
0
  3
Dash dot (.5x) _._._._._._._._._._._._._._._.
 72
65
 73
4
 40
12.6999999999999993
 49
6.3499999999999996
 74
0
 49
-3.1749999999999998
 74
0
 49
0.0
 74
0
 49
-3.1749999999999998
 74
0
  0
LTYPE
  5
39
100
AcDbSymbolTableRecord
100
AcDbLinetypeTableRecord
  2
DASHDOTX2
 70
0
  3
Dash dot (2x) ____  .  ____  .  ____  .  ___
 72
65
 73
4
 40
50.7999999999999972
 49
25.3999999999999986
 74
0
 49
-12.6999999999999993
 74
0
 49
0.0
 74
0
 49
-12.6999999999999993
 74
0
  0
LTYPE
  5
3A
100
AcDbSymbolTableRecord
100
AcDbLinetypeTableRecord
  2
DIVIDE
 70
0
  3
Divide ____ . . ____ . . ____ . . ____ . . ____
 72
65
 73
6
 40
31.75
 49
12.6999999999999993
 74
0
 49
-6.3499999999999996
 74
0
 49
0.0
 74
0
 49
-6.3499999999999996
 74
0
 49
0.0
 74
0
 49
-6.3499999999999996
 74
0
  0
LTYPE
  5
3B
100
AcDbSymbolTableRecord
100
AcDbLinetypeTableRecord
  2
DIVIDE2
 70
0
  3
Divide (.5x) __..__..__..__..__..__..__..__.._
 72
65
 73
6
 40
15.875
 49
6.3499999999999996
 74
0
 49
-3.1749999999999998
 74
0
 49
0.0
 74
0
 49
-3.1749999999999998
 74
0
 49
0.0
 74
0
 49
-3.1749999999999998
 74
0
  0
LTYPE
  5
3C
100
AcDbSymbolTableRecord
100
AcDbLinetypeTableRecord
  2
DIVIDEX2
 70
0
  3
Divide (2x) ________  .  .  ________  .  .  _
 72
65
 73
6
 40
63.5
 49
25.3999999999999986
 74
0
 49
-12.6999999999999993
 74
0
 49
0.0
 74
0
 49
-12.6999999999999993
 74
0
 49
0.0
 74
0
 49
-12.6999999999999993
 74
0
  0
LTYPE
  5
3D
100
AcDbSymbolTableRecord
100
AcDbLinetypeTableRecord
  2
CENTER
 70
0
  3
Center ____ _ ____ _ ____ _ ____ _ ____ _ ____
 72
65
 73
4
 40
50.7999999999999972
 49
31.75
 74
0
 49
-6.3499999999999996
 74
0
 49
6.3499999999999996
 74
0
 49
-6.3499999999999996
 74
0
  0
LTYPE
  5
3E
100
AcDbSymbolTableRecord
100
AcDbLinetypeTableRecord
  2
CENTER2
 70
0
  3
Center (.5x) ___ _ ___ _ ___ _ ___ _ ___ _ ___
 72
65
 73
4
 40
28.5749999999999993
 49
19.0500000000000007
 74
0
 49
-3.1749999999999998
 74
0
 49
3.1749999999999998
 74
0
 49
-3.1749999999999998
 74
0
  0
LTYPE
  5
3F
100
AcDbSymbolTableRecord
100
AcDbLinetypeTableRecord
  2
CENTERX2
 70
0
  3
Center (2x) ________  __  ________  __  _____
 72
65
 73
4
 40
101.5999999999999943
 49
63.5
 74
0
 49
-12.6999999999999993
 74
0
 49
12.6999999999999993
 74
0
 49
-12.6999999999999993
 74
0
  0
LTYPE
  5
40
100
AcDbSymbolTableRecord
100
AcDbLinetypeTableRecord
  2
BORDER
 70
0
  3
Border __ __ . __ __ . __ __ . __ __ . __ __ .
 72
65
 73
6
 40
44.4500000000000028
 49
12.6999999999999993
 74
0
 49
-6.3499999999999996
 74
0
 49
12.6999999999999993
 74
0
 49
-6.3499999999999996
 74
0
 49
0.0
 74
0
 49
-6.3499999999999996
 74
0
  0
LTYPE
  5
41
100
AcDbSymbolTableRecord
100
AcDbLinetypeTableRecord
  2
BORDER2
 70
0
  3
Border (.5x) __.__.__.__.__.__.__.__.__.__.__.
 72
65
 73
6
 40
22.2250000000000014
 49
6.3499999999999996
 74
0
 49
-3.1749999999999998
 74
0
 49
6.3499999999999996
 74
0
 49
-3.1749999999999998
 74
0
 49
0.0
 74
0
 49
-3.1749999999999998
 74
0
  0
LTYPE
  5
42
100
AcDbSymbolTableRecord
100
AcDbLinetypeTableRecord
  2
BORDERX2
 70
0
  3
Border (2x) ____  ____  .  ____  ____  .  ___
 72
65
 73
6
 40
88.9000000000000057
 49
25.3999999999999986
 74
0
 49
-12.6999999999999993
 74
0
 49
25.3999999999999986
 74
0
 49
-12.6999999999999993
 74
0
 49
0.0
 74
0
 49
-12.6999999999999993
 74
0
  0
ENDTAB
  0
TABLE
  2
LAYER
  5
2
100
AcDbSymbolTable
 70
1
  0
LAYER
  5
10
100
AcDbSymbolTableRecord
100
AcDbLayerTableRecord
  2
0
 70
0
 62
7
  6
CONTINUOUS
370
0
390
F
  0
ENDTAB
  0
TABLE
  2
STYLE
  5
3
100
AcDbSymbolTable
 70
1
  0
STYLE
  5
11
100
AcDbSymbolTableRecord
100
AcDbTextStyleTableRecord
  2
Standard
 70
0
 40
0.0
 41
0.75
 50
0.0
 71
0
 42
2.5
  3
txt
  4

  0
ENDTAB
  0
TABLE
  2
VIEW
  5
6
100
AcDbSymbolTable
 70
0
  0
ENDTAB
  0
TABLE
  2
UCS
  5
7
100
AcDbSymbolTable
 70
0
  0
ENDTAB
  0
TABLE
  2
APPID
  5
9
100
AcDbSymbolTable
 70
1
  0
APPID
  5
12
100
AcDbSymbolTableRecord
100
AcDbRegAppTableRecord
  2
ACAD
 70
0
  0
ENDTAB
  0
TABLE
  2
DIMSTYLE
  5
A
100
AcDbSymbolTable
 70
1
100
AcDbDimStyleTable
 71
0
  0
DIMSTYLE
105
27
100
AcDbSymbolTableRecord
100
AcDbDimStyleTableRecord
  2
Standard
 41
2.5
 42
0.625
 43
3.75
 44
1.25
 70
0
 73
0
 74
0
 77
1
 78
8
140
2.5
141
2.5
143
0.03937007874016
147
0.625
171
3
172
1
271
2
272
2
274
3
278
44
283
0
284
8
340
11
  0
ENDTAB
  0
TABLE
  2
BLOCK_RECORD
  5
1
100
AcDbSymbolTable
 70
1
  0
BLOCK_RECORD
  5
1F
100
AcDbSymbolTableRecord
100
AcDbBlockTableRecord
  2
*Model_Space
340
22
  0
BLOCK_RECORD
  5
1B
100
AcDbSymbolTableRecord
100
AcDbBlockTableRecord
  2
*Paper_Space
340
1E
  0
BLOCK_RECORD
  5
23
100
AcDbSymbolTableRecord
100
AcDbBlockTableRecord
  2
*Paper_Space0
340
26
  0
ENDTAB
  0
ENDSEC
  0
SECTION
  2
BLOCKS
  0
BLOCK
  5
20
100
AcDbEntity
  8
0
100
AcDbBlockBegin
  2
*Model_Space
 70
0
 10
0.0
 20
0.0
 30
0.0
  3
*Model_Space
  1

  0
ENDBLK
  5
21
100
AcDbEntity
  8
0
100
AcDbBlockEnd
  0
BLOCK
  5
1C
100
AcDbEntity
 67
1
  8
0
100
AcDbBlockBegin
  2
*Paper_Space
 70
0
 10
0.0
 20
0.0
 30
0.0
  3
*Paper_Space
  1

  0
ENDBLK
  5
1D
100
AcDbEntity
 67
1
  8
0
100
AcDbBlockEnd
  0
BLOCK
  5
24
100
AcDbEntity
  8
0
100
AcDbBlockBegin
  2
*Paper_Space0
 70
0
 10
0.0
 20
0.0
 30
0.0
  3
*Paper_Space0
  1

  0
ENDBLK
  5
25
100
AcDbEntity
  8
0
100
AcDbBlockEnd
  0
ENDSEC
  0
SECTION
  2
ENTITIES
  0
ARC
  5
43
100
AcDbEntity
  8
0
 62
256
370
-1
  6
ByLayer
100
AcDbCircle
 10
533.0508652763321606
 20
39.9137802864844389
 30
0.0
 40
20.0
100
AcDbArc
 50
270.0
 51
0.0
  0
ARC
  5
44
100
AcDbEntity
  8
0
 62
256
370
-1
  6
ByLayer
100
AcDbCircle
 10
533.0508652763321606
 20
39.9137802864844389
 30
0.0
 40
20.0
100
AcDbArc
 50
0.0
 51
90.0
  0
LINE
  5
45
100
AcDbEntity
100
AcDbLine
  8
0
 62
256
370
-1
  6
ByLayer
 10
463.0508652763321606
 20
79.9137802864844389
 30
0.0
 11
463.0508652763321606
 21
39.9137802864844389
 31
0.0
  0
LINE
  5
46
100
AcDbEntity
100
AcDbLine
  8
0
 62
256
370
-1
  6
ByLayer
 10
443.0508652763321606
 20
59.913780286484446
 30
0.0
 11
483.0508652763321606
 21
59.9137802864844318
 31
0.0
  0
ARC
  5
47
100
AcDbEntity
  8
0
 62
256
370
-1
  6
ByLayer
100
AcDbCircle
 10
443.0508652763321606
 20
29.913780286484446
 30
0.0
 40
30.0
100
AcDbArc
 50
90.0
 51
180.0
  0
ARC
  5
48
100
AcDbEntity
  8
0
 62
256
370
-1
  6
ByLayer
100
AcDbCircle
 10
483.0508652763321606
 20
39.9137802864844389
 30
0.0
 40
20.0
100
AcDbArc
 50
180.0
 51
270.0
  0
LINE
  5
49
100
AcDbEntity
100
AcDbLine
  8
0
 62
256
370
-1
  6
ByLayer
 10
413.0508652763321606
 20
29.9142287025397664
 30
0.0
 11
413.0508652763321606
 21
-20.0857712974602336
 31
0.0
  0
ARC
  5
4A
100
AcDbEntity
  8
0
 62
256
370
-1
  6
ByLayer
100
AcDbCircle
 10
443.0513136923875095
 20
-20.0857712974602478
 30
0.0
 40
30.0
100
AcDbArc
 50
180.0
 51
270.0
  0
LINE
  5
4B
100
AcDbEntity
100
AcDbLine
  8
0
 62
256
370
-1
  6
ByLayer
 10
443.0513136923875095
 20
-50.0857712974602478
 30
0.0
 11
543.0513136923875663
 21
-50.0857712974602478
 31
0.0
  0
ARC
  5
4C
100
AcDbEntity
  8
0
 62
256
370
-1
  6
ByLayer
100
AcDbCircle
 10
543.0513136923875663
 20
-70.0857712974602407
 30
0.0
 40
20.0
100
AcDbArc
 50
0.0
 51
90.0
  0
LINE
  5
4D
100
AcDbEntity
100
AcDbLine
  8
0
 62
256
370
-1
  6
ByLayer
 10
563.0513136923875663
 20
-120.0857712974602407
 30
0.0
 11
563.0513136923875663
 21
-70.0857712974602407
 31
0.0
  0
LINE
  5
4E
100
AcDbEntity
100
AcDbLine
  8
0
 62
256
370
-1
  6
ByLayer
 10
483.0508652763321606
 20
59.9137802864844318
 30
0.0
 11
533.0508652763321606
 21
59.9137802864844318
 31
0.0
  0
LINE
  5
4F
100
AcDbEntity
100
AcDbLine
  8
0
 62
256
370
-1
  6
ByLayer
 10
483.0508652763321606
 20
19.9137802864844389
 30
0.0
 11
533.0508652763321606
 21
19.9137802864844389
 31
0.0
  0
ARC
  5
50
100
AcDbEntity
  8
0
 62
256
370
-1
  6
ByLayer
100
AcDbCircle
 10
543.0513136923875663
 20
-120.0857712974602407
 30
0.0
 40
20.0
100
AcDbArc
 50
270.0
 51
0.0
  0
LINE
  5
51
100
AcDbEntity
100
AcDbLine
  8
0
 62
256
370
-1
  6
ByLayer
 10
543.0513136923875663
 20
-140.0857712974602407
 30
0.0
 11
493.0513136923874526
 21
-140.0857712974602407
 31
0.0
  0
ARC
  5
52
100
AcDbEntity
  8
0
 62
256
370
-1
  6
ByLayer
100
AcDbCircle
 10
313.0502114735401165
 20
-110.0857712974602123
 30
0.0
 40
30.0
100
AcDbArc
 50
180.0
 51
270.0
  0
ARC
  5
53
100
AcDbEntity
  8
0
 62
256
370
-1
  6
ByLayer
100
AcDbCircle
 10
433.0508652763321606
 20
79.9137802864844531
 30
0.0
 40
30.0
100
AcDbArc
 50
360.0
 51
89.9999999999999858
  0
LINE
  5
54
100
AcDbEntity
100
AcDbLine
  8
0
 62
256
370
-1
  6
ByLayer
 10
433.0508652763322175
 20
109.9137802864844673
 30
0.0
 11
383.0508652763321606
 21
109.9137802864843962
 31
0.0
  0
MTEXT
  5
55
100
AcDbEntity
100
AcDbMText
  8
0
 62
256
370
-1
  6
ByLayer
 10
465.2652377053686337
 20
-35.4415983341204637
 30
0.0
 40
10.0
 41
100.0
 71
1
 72
2
  1
2*A
  7
normallatin1
 50
0.0
 73
1
 44
1.0
  0
MTEXT
  5
56
100
AcDbEntity
100
AcDbMText
  8
0
 62
256
370
-1
  6
ByLayer
 10
400.6031726596064573
 20
8.4833613033799011
 30
0.0
 40
10.0
 41
100.0
 71
1
 72
2
  1
A
  7
normallatin1
 50
0.0
 73
1
 44
1.0
  0
MTEXT
  5
57
100
AcDbEntity
100
AcDbMText
  8
0
 62
256
370
-1
  6
ByLayer
 10
571.21299442758027
 20
-87.0330030013419957
 30
0.0
 40
10.0
 41
100.0
 71
1
 72
2
  1
A
  7
normallatin1
 50
0.0
 73
1
 44
1.0
  0
MTEXT
  5
58
100
AcDbEntity
100
AcDbMText
  8
0
 62
256
370
-1
  6
ByLayer
 10
517.7992380729660908
 20
-145.4739364246257765
 30
0.0
 40
10.0
 41
100.0
 71
1
 72
2
  1
A
  7
normallatin1
 50
0.0
 73
1
 44
1.0
  0
MTEXT
  5
59
100
AcDbEntity
100
AcDbMText
  8
0
 62
256
370
-1
  6
ByLayer
 10
507.2421662287603681
 20
11.8138661113735068
 30
0.0
 40
10.0
 41
100.0
 71
1
 72
2
  1
A
  7
normallatin1
 50
0.0
 73
1
 44
1.0
  0
MTEXT
  5
5A
100
AcDbEntity
100
AcDbMText
  8
0
 62
256
370
-1
  6
ByLayer
 10
510.9654192452438224
 20
73.4439149875946242
 30
0.0
 40
10.0
 41
100.0
 71
1
 72
2
  1
A
  7
normallatin1
 50
0.0
 73
1
 44
1.0
  0
MTEXT
  5
5B
100
AcDbEntity
100
AcDbMText
  8
0
 62
256
370
-1
  6
ByLayer
 10
411.6001224973217063
 20
124.1084338827802043
 30
0.0
 40
10.0
 41
100.0
 71
1
 72
2
  1
A
  7
normallatin1
 50
0.0
 73
1
 44
1.0
  0
MTEXT
  5
5C
100
AcDbEntity
100
AcDbMText
  8
0
 62
256
370
-1
  6
ByLayer
 10
468.8431738847116321
 20
73.0266200160741903
 30
0.0
 40
10.0
 41
100.0
 71
1
 72
2
  1
E
  7
normallatin1
 50
0.0
 73
1
 44
1.0
  0
MTEXT
  5
5D
100
AcDbEntity
100
AcDbMText
  8
0
 62
256
370
-1
  6
ByLayer
 10
462.0928140512930327
 20
112.3014408650552838
 30
0.0
 40
10.0
 41
100.0
 71
1
 72
2
  1
B
  7
normallatin1
 50
0.0
 73
1
 44
1.0
  0
MTEXT
  5
5E
100
AcDbEntity
100
AcDbMText
  8
0
 62
256
370
-1
  6
ByLayer
 10
407.4762663081787082
 20
57.0712240461756295
 30
0.0
 40
10.0
 41
100.0
 71
1
 72
2
  1
B
  7
normallatin1
 50
0.0
 73
1
 44
1.0
  0
MTEXT
  5
5F
100
AcDbEntity
100
AcDbMText
  8
0
 62
256
370
-1
  6
ByLayer
 10
411.7719498385359884
 20
-46.6388497581650299
 30
0.0
 40
10.0
 41
100.0
 71
1
 72
2
  1
B
  7
normallatin1
 50
0.0
 73
1
 44
1.0
  0
MTEXT
  5
60
100
AcDbEntity
100
AcDbMText
  8
0
 62
256
370
-1
  6
ByLayer
 10
467.0021666574156711
 20
18.41007227295988
 30
0.0
 40
10.0
 41
100.0
 71
1
 72
2
  1
C
  7
normallatin1
 50
0.0
 73
1
 44
1.0
  0
MTEXT
  5
61
100
AcDbEntity
100
AcDbMText
  8
0
 62
256
370
-1
  6
ByLayer
 10
566.4165569313989863
 20
-47.2525188339303597
 30
0.0
 40
10.0
 41
100.0
 71
1
 72
2
  1
C
  7
normallatin1
 50
0.0
 73
1
 44
1.0
  0
MTEXT
  5
62
100
AcDbEntity
100
AcDbMText
  8
0
 62
256
370
-1
  6
ByLayer
 10
567.6438950829297028
 20
-136.2345348199031321
 30
0.0
 40
10.0
 41
100.0
 71
1
 72
2
  1
C
  7
normallatin1
 50
0.0
 73
1
 44
1.0
  0
MTEXT
  5
63
100
AcDbEntity
100
AcDbMText
  8
0
 62
256
370
-1
  6
ByLayer
 10
281.3059043308271043
 20
-138.9346787532706173
 30
0.0
 40
10.0
 41
100.0
 71
1
 72
2
  1
B
  7
normallatin1
 50
0.0
 73
1
 44
1.0
  0
MTEXT
  5
64
100
AcDbEntity
100
AcDbMText
  8
0
 62
256
370
-1
  6
ByLayer
 10
553.2840387100211501
 20
21.6011514669396014
 30
0.0
 40
10.0
 41
100.0
 71
1
 72
2
  1
C
  7
normallatin1
 50
0.0
 73
1
 44
1.0
  0
MTEXT
  5
65
100
AcDbEntity
100
AcDbMText
  8
0
 62
256
370
-1
  6
ByLayer
 10
554.7568444918579189
 20
62.3487780977574886
 30
0.0
 40
10.0
 41
100.0
 71
1
 72
2
  1
C
  7
normallatin1
 50
0.0
 73
1
 44
1.0
  0
ARC
  5
66
100
AcDbEntity
  8
0
 62
256
370
-1
  6
ByLayer
100
AcDbCircle
 10
383.0508652763321606
 20
89.9137802864843962
 30
0.0
 40
20.0
100
AcDbArc
 50
90.0
 51
180.0
  0
LINE
  5
67
100
AcDbEntity
100
AcDbLine
  8
0
 62
256
370
-1
  6
ByLayer
 10
363.0508652763321606
 20
89.9137802864843962
 30
0.0
 11
363.0508652763321606
 21
-10.0862197135156038
 31
0.0
  0
ARC
  5
68
100
AcDbEntity
  8
0
 62
256
370
-1
  6
ByLayer
100
AcDbCircle
 10
343.0508652763321606
 20
-10.0862197135156038
 30
0.0
 40
20.0
100
AcDbArc
 50
270.0
 51
0.0
  0
MTEXT
  5
69
100
AcDbEntity
100
AcDbMText
  8
0
 62
256
370
-1
  6
ByLayer
 10
367.6434466668742971
 20
-26.2349832359584951
 30
0.0
 40
10.0
 41
100.0
 71
1
 72
2
  1
C
  7
normallatin1
 50
0.0
 73
1
 44
1.0
  0
ARC
  5
6A
100
AcDbEntity
  8
0
 62
256
370
-1
  6
ByLayer
100
AcDbCircle
 10
193.0508652763321606
 20
-10.0862197135156038
 30
0.0
 40
20.0
100
AcDbArc
 50
180.0
 51
270.0
  0
ARC
  5
6B
100
AcDbEntity
  8
0
 62
256
370
-1
  6
ByLayer
100
AcDbCircle
 10
253.049763057484796
 20
89.9142287025397877
 30
0.0
 40
30.0
100
AcDbArc
 50
0.0
 51
90.0
  0
LINE
  5
6C
100
AcDbEntity
100
AcDbLine
  8
0
 62
256
370
-1
  6
ByLayer
 10
253.049763057484796
 20
119.9142287025397877
 30
0.0
 11
203.0497630574847392
 21
119.9142287025397167
 31
0.0
  0
ARC
  5
6D
100
AcDbEntity
  8
0
 62
256
370
-1
  6
ByLayer
100
AcDbCircle
 10
203.0497630574847392
 20
89.9137802864843962
 30
0.0
 40
30.0
100
AcDbArc
 50
90.0
 51
180.0
  0
LINE
  5
6E
100
AcDbEntity
100
AcDbLine
  8
0
 62
256
370
-1
  6
ByLayer
 10
173.0497630574847392
 20
89.9137802864843962
 30
0.0
 11
173.0508652763321606
 21
-10.086219713515602
 31
0.0
  0
MTEXT
  5
6F
100
AcDbEntity
100
AcDbMText
  8
0
 62
256
370
-1
  6
ByLayer
 10
282.9014439278166719
 20
124.5748223803619652
 30
0.0
 40
10.0
 41
100.0
 71
1
 72
2
  1
B
  7
normallatin1
 50
0.0
 73
1
 44
1.0
  0
MTEXT
  5
70
100
AcDbEntity
100
AcDbMText
  8
0
 62
256
370
-1
  6
ByLayer
 10
168.1453267596998842
 20
124.5748223803619652
 30
0.0
 40
10.0
 41
100.0
 71
1
 72
2
  1
B
  7
normallatin1
 50
0.0
 73
1
 44
1.0
  0
MTEXT
  5
71
100
AcDbEntity
100
AcDbMText
  8
0
 62
256
370
-1
  6
ByLayer
 10
168.2009970431419674
 20
-28.0759904632544846
 30
0.0
 40
10.0
 41
100.0
 71
1
 72
2
  1
C
  7
normallatin1
 50
0.0
 73
1
 44
1.0
  0
MTEXT
  5
72
100
AcDbEntity
100
AcDbMText
  8
0
 62
256
370
-1
  6
ByLayer
 10
144.8259018806179483
 20
50.9345332885224167
 30
0.0
 40
10.0
 41
100.0
 71
1
 72
2
  1
2*A
  7
normallatin1
 50
0.0
 73
1
 44
1.0
  0
MTEXT
  5
73
100
AcDbEntity
100
AcDbMText
  8
0
 62
256
370
-1
  6
ByLayer
 10
225.0938169907220185
 20
135.5128599868032779
 30
0.0
 40
10.0
 41
100.0
 71
1
 72
2
  1
A
  7
normallatin1
 50
0.0
 73
1
 44
1.0
  0
MTEXT
  5
74
100
AcDbEntity
100
AcDbMText
  8
0
 62
256
370
-1
  6
ByLayer
 10
219.6935291239882417
 20
-15.3417268941332576
 30
0.0
 40
10.0
 41
100.0
 71
1
 72
2
  1
3*A
  7
normallatin1
 50
0.0
 73
1
 44
1.0
  0
MTEXT
  5
75
100
AcDbEntity
100
AcDbMText
  8
0
 62
256
370
-1
  6
ByLayer
 10
338.1316607466969799
 20
47.8661879096957676
 30
0.0
 40
10.0
 41
100.0
 71
1
 72
2
  1
2*A
  7
normallatin1
 50
0.0
 73
1
 44
1.0
  0
MTEXT
  5
76
100
AcDbEntity
100
AcDbMText
  8
0
 62
256
370
-1
  6
ByLayer
 10
359.0520796061596798
 20
117.9772495688941234
 30
0.0
 40
10.0
 41
100.0
 71
1
 72
2
  1
C
  7
normallatin1
 50
0.0
 73
1
 44
1.0
  0
ARC
  5
77
100
AcDbEntity
  8
0
 62
256
370
-1
  6
ByLayer
100
AcDbCircle
 10
493.0513136923874526
 20
-120.0857712974601554
 30
0.0
 40
20.0
100
AcDbArc
 50
225.0000000000000284
 51
270.0
  0
ARC
  5
78
100
AcDbEntity
  8
0
 62
256
370
-1
  6
ByLayer
100
AcDbCircle
 10
464.7670424449255506
 20
-148.3700425449218869
 30
0.0
 40
20.0
100
AcDbArc
 50
44.9999999999999858
 51
89.9999999999999858
  0
ARC
  5
79
100
AcDbEntity
  8
0
 62
256
370
-1
  6
ByLayer
100
AcDbCircle
 10
464.7670424449255506
 20
-172.0100425449221575
 30
0.0
 40
43.6399999999999579
100
AcDbArc
 50
89.9999999999999858
 51
134.9999999999999432
  0
ARC
  5
7A
100
AcDbEntity
  8
0
 62
256
370
-1
  6
ByLayer
100
AcDbCircle
 10
403.0507625829637846
 20
-110.2937626829602493
 30
0.0
 40
43.6399999999999579
100
AcDbArc
 50
270.0
 51
314.9999999999999432
  0
ARC
  5
7B
100
AcDbEntity
  8
0
 62
256
370
-1
  6
ByLayer
100
AcDbCircle
 10
313.0502114735401165
 20
-120.0857712974601554
 30
0.0
 40
20.0
100
AcDbArc
 50
270.0
 51
314.9999999999999432
  0
ARC
  5
7C
100
AcDbEntity
  8
0
 62
256
370
-1
  6
ByLayer
100
AcDbCircle
 10
341.3344827210020185
 20
-148.3700425449221143
 30
0.0
 40
20.0
100
AcDbArc
 50
89.9999999999999858
 51
135.0000000000000284
  0
ARC
  5
7D
100
AcDbEntity
  8
0
 62
256
370
-1
  6
ByLayer
100
AcDbCircle
 10
341.3344827210020185
 20
-172.0100425449221007
 30
0.0
 40
43.6399999999999579
100
AcDbArc
 50
45.0000000000000284
 51
89.9999999999999858
  0
ARC
  5
7E
100
AcDbEntity
  8
0
 62
256
370
-1
  6
ByLayer
100
AcDbCircle
 10
403.0507625829637846
 20
-110.2937626829602493
 30
0.0
 40
43.6399999999999579
100
AcDbArc
 50
225.0000000000000284
 51
270.0
  0
MTEXT
  5
7F
100
AcDbEntity
100
AcDbMText
  8
0
 62
256
370
-1
  6
ByLayer
 10
438.1980744136806152
 20
-124.8365577918214484
 30
0.0
 40
10.0
 41
100.0
 71
7
 72
2
  1
D
  7
normallatin1
 50
360.0
 73
1
 44
1.0
  0
MTEXT
  5
80
100
AcDbEntity
100
AcDbMText
  8
0
 62
256
370
-1
  6
ByLayer
 10
373.954593044497642
 20
-126.7542736535881005
 30
0.0
 40
10.0
 41
100.0
 71
7
 72
2
  1
D
  7
normallatin1
 50
360.0
 73
1
 44
1.0
  0
LINE
  5
81
100
AcDbEntity
100
AcDbLine
  8
0
 62
256
370
-1
  6
ByLayer
 10
283.0497630574848245
 20
89.9142287025397877
 30
0.0
 11
283.0497630574848245
 21
39.9142287025397877
 31
0.0
  0
LINE
  5
82
100
AcDbEntity
100
AcDbLine
  8
0
 62
256
370
-1
  6
ByLayer
 10
283.0497630574848245
 20
39.9142287025397877
 30
0.0
 11
283.0497630574848245
 21
-110.0857712974602123
 31
0.0
  0
MTEXT
  5
83
100
AcDbEntity
100
AcDbMText
  8
0
 62
256
370
-1
  6
ByLayer
 10
268.0356370531598031
 20
71.0259467497025412
 30
0.0
 40
10.0
 41
100.0
 71
1
 72
2
  1
A
  7
normallatin1
 50
0.0
 73
1
 44
1.0
  0
MTEXT
  5
84
100
AcDbEntity
100
AcDbMText
  8
0
 62
256
370
-1
  6
ByLayer
 10
293.7621500838077395
 20
-64.6157071467438726
 30
0.0
 40
10.0
 41
100.0
 71
1
 72
2
  1
F
  7
normallatin1
 50
0.0
 73
0
 44
1.0
  0
LINE
  5
85
100
AcDbEntity
100
AcDbLine
  8
0
 62
256
370
-1
  6
ByLayer
 10
278.6344164536028529
 20
-45.0862197135156038
 30
0.0
 11
278.6344164536028529
 21
-15.0862197135156038
 31
0.0
  0
LINE
  5
86
100
AcDbEntity
100
AcDbLine
  8
0
 62
256
370
-1
  6
ByLayer
 10
287.4155068148837131
 20
-45.0512285668776968
 30
0.0
 11
287.4155068148837131
 21
-15.0512285668777004
 31
0.0
  0
LINE
  5
87
100
AcDbEntity
100
AcDbLine
  8
0
 62
256
370
-1
  6
ByLayer
 10
278.6344164536028529
 20
-30.0862197135156038
 30
0.0
 11
193.0508652763321606
 21
-30.0862197135156038
 31
0.0
  0
LINE
  5
88
100
AcDbEntity
100
AcDbLine
  8
0
 62
256
370
-1
  6
ByLayer
 10
343.0508652763321606
 20
-30.0862197135156038
 30
0.0
 11
287.4155068148837131
 21
-30.0862197135156038
 31
0.0
  0
LINE
  5
89
100
AcDbEntity
100
AcDbLine
  8
0
 62
256
370
-1
  6
ByLayer
 10
850.0
 20
100.0
 30
0.0
 11
900.0
 21
100.0
 31
0.0
  0
LINE
  5
8A
100
AcDbEntity
100
AcDbLine
  8
0
 62
256
370
-1
  6
ByLayer
 10
900.0
 20
78.0
 30
0.0
 11
850.0
 21
78.0
 31
0.0
  0
LINE
  5
8B
100
AcDbEntity
100
AcDbLine
  8
0
 62
256
370
200
  6
ByLayer
 10
850.0
 20
89.0
 30
0.0
 11
900.0
 21
89.0
 31
0.0
  0
MTEXT
  5
8C
100
AcDbEntity
100
AcDbMText
  8
0
 62
256
370
-1
  6
ByLayer
 10
291.9289785403304336
 20
7.2708105147837578
 30
0.0
 40
10.0
 41
100.0
 71
1
 72
2
  1
F
  7
normallatin1
 50
0.0
 73
0
 44
1.0
  0
LINE
  5
8D
100
AcDbEntity
100
AcDbLine
  8
0
 62
256
370
-1
  6
ByLayer
 10
850.0
 20
100.0
 30
0.0
 11
850.0
 21
78.0
 31
0.0
  0
LINE
  5
8E
100
AcDbEntity
100
AcDbLine
  8
0
 62
256
370
-1
  6
ByLayer
 10
900.0
 20
100.0
 30
0.0
 11
900.0
 21
78.0
 31
0.0
  0
ARC
  5
8F
100
AcDbEntity
  8
0
 62
256
370
-1
  6
ByLayer
100
AcDbCircle
 10
900.0
 20
0.0
 30
0.0
 40
41.0
100
AcDbArc
 50
90.0
 51
180.0
  0
ARC
  5
90
100
AcDbEntity
  8
0
 62
256
370
-1
  6
ByLayer
100
AcDbCircle
 10
900.0
 20
0.0
 30
0.0
 40
19.0
100
AcDbArc
 50
90.0
 51
180.0
  0
ARC
  5
91
100
AcDbEntity
  8
0
 62
256
370
200
  6
ByLayer
100
AcDbCircle
 10
900.0
 20
0.0
 30
0.0
 40
30.0
100
AcDbArc
 50
90.0
 51
180.0
  0
DIMENSION
  5
92
100
AcDbEntity
  8
0
 62
256
370
-1
  6
ByLayer
100
AcDbDimension
 10
900.0
 20
0.0
 30
0.0
 11
890.7192234969265883
 21
11.9324269325229899
 31
0.0
 70
4
 71
5
 72
1
 41
1.0
 42
0.0
  1

  3
Standard
100
AcDbRadialDimension
 15
878.7867965644036303
 25
21.2132034355964265
 35
0.0
 40
0.0
  0
DIMENSION
  5
93
100
AcDbEntity
  8
0
 62
256
370
-1
  6
ByLayer
100
AcDbDimension
 10
900.0
 20
0.0
 30
0.0
 11
897.7415252724246102
 21
9.4162050160828237
 31
0.0
 70
4
 71
5
 72
1
 41
1.0
 42
0.0
  1

  3
Standard
100
AcDbRadialDimension
 15
892.0748462773505025
 25
17.2682349553269319
 35
0.0
 40
0.0
  0
LINE
  5
94
100
AcDbEntity
100
AcDbLine
  8
0
 62
256
370
-1
  6
ByLayer
 10
862.5929796570297867
 20
16.7843626349234896
 30
0.0
 11
865.0443119378307983
 21
16.1407300025934006
 31
0.0
  0
LINE
  5
95
100
AcDbEntity
100
AcDbLine
  8
0
 62
256
370
-1
  6
ByLayer
 10
865.0443119378307983
 20
16.1407300025934006
 30
0.0
 11
864.7034791253714729
 21
15.381121775189742
 31
0.0
  0
LINE
  5
96
100
AcDbEntity
100
AcDbLine
  8
0
 62
256
370
-1
  6
ByLayer
 10
864.7034791253714729
 20
15.381121775189742
 30
0.0
 11
862.5929796570297867
 21
16.7843626349234896
 31
0.0
  0
LINE
  5
97
100
AcDbEntity
100
AcDbLine
  8
0
 62
256
370
-1
  6
ByLayer
 10
900.0
 20
0.0
 30
0.0
 11
862.5929796570297867
 21
16.7843626349234718
 31
0.0
  0
ARC
  5
98
100
AcDbEntity
  8
0
 62
256
370
-1
  6
ByLayer
100
AcDbCircle
 10
800.0
 20
0.0
 30
0.0
 40
9.0
100
AcDbArc
 50
90.0
 51
180.0
  0
ARC
  5
99
100
AcDbEntity
  8
0
 62
256
370
-1
  6
ByLayer
100
AcDbCircle
 10
800.0
 20
0.0
 30
0.0
 40
31.0
100
AcDbArc
 50
90.0
 51
180.0
  0
ARC
  5
9A
100
AcDbEntity
  8
0
 62
256
370
200
  6
ByLayer
100
AcDbCircle
 10
800.0
 20
0.0
 30
0.0
 40
20.0
100
AcDbArc
 50
90.0
 51
180.0
  0
DIMENSION
  5
9B
100
AcDbEntity
  8
0
 62
256
370
-1
  6
ByLayer
100
AcDbDimension
 10
800.0
 20
0.0
 30
0.0
 11
798.7103358851014718
 21
4.7013180567520934
 31
0.0
 70
4
 71
5
 72
1
 41
1.0
 42
0.0
  1

  3
Standard
100
AcDbRadialDimension
 15
794.4640151958520846
 25
7.0959757784425577
 35
0.0
 40
0.0
  0
DIMENSION
  5
9C
100
AcDbEntity
  8
0
 62
256
370
-1
  6
ByLayer
100
AcDbDimension
 10
800.0
 20
0.0
 30
0.0
 11
786.1307493185574913
 21
7.1700425755574457
 31
0.0
 70
4
 71
5
 72
1
 41
1.0
 42
0.0
  1

  3
Standard
100
AcDbRadialDimension
 15
770.9518777426578708
 25
10.8261993941783459
 35
0.0
 40
0.0
  0
LINE
  5
9D
100
AcDbEntity
100
AcDbLine
  8
0
 62
256
370
-1
  6
ByLayer
 10
880.0661430750218415
 20
9.5967076524268222
 30
0.0
 11
880.5210038510359709
 21
10.6104480411251991
 31
0.0
  0
LINE
  5
9E
100
AcDbEntity
100
AcDbLine
  8
0
 62
256
370
-1
  6
ByLayer
 10
880.6737261087909019
 20
9.9330050557706606
 30
0.0
 11
879.4065506229178482
 21
10.5015810257884024
 31
0.0
  0
LINE
  5
9F
100
AcDbEntity
100
AcDbLine
  8
0
 62
256
370
-1
  6
ByLayer
 10
879.4065506229178482
 20
10.5015810257884024
 30
0.0
 11
880.7094271752919212
 21
12.0481963180034786
 31
0.0
  0
LINE
  5
A0
100
AcDbEntity
100
AcDbLine
  8
0
 62
256
370
-1
  6
ByLayer
 10
882.0026073703323846
 20
10.8590349596330036
 30
0.0
 11
882.736907952688739
 21
11.1384747659751042
 31
0.0
  0
LINE
  5
A1
100
AcDbEntity
100
AcDbLine
  8
0
 62
256
370
-1
  6
ByLayer
 10
882.736907952688739
 20
11.1384747659751042
 30
0.0
 11
881.7134712066567772
 21
8.8575588914037517
 31
0.0
  0
LINE
  5
A2
100
AcDbEntity
100
AcDbLine
  8
0
 62
256
370
-1
  6
ByLayer
 10
784.8862183442035985
 20
13.0986107683568331
 30
0.0
 11
787.048078586228371
 21
11.7758661935240632
 31
0.0
  0
LINE
  5
A3
100
AcDbEntity
100
AcDbLine
  8
0
 62
256
370
-1
  6
ByLayer
 10
787.048078586228371
 20
11.7758661935240632
 30
0.0
 11
786.5028035161278694
 21
11.1467026511003997
 31
0.0
  0
LINE
  5
A4
100
AcDbEntity
100
AcDbLine
  8
0
 62
256
370
-1
  6
ByLayer
 10
786.5028035161278694
 20
11.1467026511003997
 30
0.0
 11
784.8862183442035985
 21
13.0986107683568331
 31
0.0
  0
LINE
  5
A5
100
AcDbEntity
100
AcDbLine
  8
0
 62
256
370
-1
  6
ByLayer
 10
800.0
 20
0.0
 30
0.0
 11
784.8862183442035985
 21
13.0986107683568367
 31
0.0
  0
MTEXT
  5
A6
100
AcDbEntity
100
AcDbMText
  8
0
 62
256
370
-1
  6
ByLayer
 10
792.2126236762762801
 20
8.930529575494905
 30
0.0
 40
2.5
 41
30.0
 71
5
 72
0
  1
20
  7
standard
 50
319.0856167799749983
 73
1
 44
1.0
  0
LINE
  5
A7
100
AcDbEntity
100
AcDbLine
  8
0
 62
256
370
-1
  6
ByLayer
 10
859.0
 20
0.0
 30
0.0
 11
881.0
 21
0.0
 31
0.0
  0
LINE
  5
A8
100
AcDbEntity
100
AcDbLine
  8
0
 62
256
370
-1
  6
ByLayer
 10
900.0
 20
41.0
 30
0.0
 11
900.0
 21
19.0
 31
0.0
  0
LINE
  5
A9
100
AcDbEntity
100
AcDbLine
  8
0
 62
256
370
-1
  6
ByLayer
 10
769.0
 20
0.0
 30
0.0
 11
791.0
 21
0.0
 31
0.0
  0
LINE
  5
AA
100
AcDbEntity
100
AcDbLine
  8
0
 62
256
370
-1
  6
ByLayer
 10
800.0
 20
9.0
 30
0.0
 11
800.0
 21
31.0
 31
0.0
  0
LINE
  5
AB
100
AcDbEntity
100
AcDbLine
  8
0
 62
256
370
200
  6
ByLayer
 10
770.0
 20
-70.0
 30
0.0
 11
810.0
 21
-70.0
 31
0.0
  0
LINE
  5
AC
100
AcDbEntity
100
AcDbLine
  8
0
 62
256
370
200
  6
ByLayer
 10
790.0
 20
-50.0
 30
0.0
 11
790.0
 21
-90.0
 31
0.0
  0
LINE
  5
AD
100
AcDbEntity
100
AcDbLine
  8
0
 62
256
370
-1
  6
ByLayer
 10
800.9489999999999554
 20
-49.9139999999999873
 30
0.0
 11
778.9489999999999554
 21
-49.9139999999999873
 31
0.0
  0
LINE
  5
AE
100
AcDbEntity
100
AcDbLine
  8
0
 62
256
370
-1
  6
ByLayer
 10
778.9489999999999554
 20
-49.9139999999999873
 30
0.0
 11
778.9489999999999554
 21
-58.9139999999999873
 31
0.0
  0
LINE
  5
AF
100
AcDbEntity
100
AcDbLine
  8
0
 62
256
370
-1
  6
ByLayer
 10
778.9489999999999554
 20
-58.9139999999999873
 30
0.0
 11
769.9489999999999554
 21
-58.9139999999999873
 31
0.0
  0
LINE
  5
B0
100
AcDbEntity
100
AcDbLine
  8
0
 62
256
370
-1
  6
ByLayer
 10
769.9489999999999554
 20
-58.9139999999999873
 30
0.0
 11
769.9489999999999554
 21
-80.9139999999999873
 31
0.0
  0
LINE
  5
B1
100
AcDbEntity
100
AcDbLine
  8
0
 62
256
370
-1
  6
ByLayer
 10
769.9489999999999554
 20
-80.9139999999999873
 30
0.0
 11
778.9489999999999554
 21
-80.9139999999999873
 31
0.0
  0
LINE
  5
B2
100
AcDbEntity
100
AcDbLine
  8
0
 62
256
370
-1
  6
ByLayer
 10
778.9489999999999554
 20
-80.9139999999999873
 30
0.0
 11
778.9489999999999554
 21
-89.9139999999999873
 31
0.0
  0
LINE
  5
B3
100
AcDbEntity
100
AcDbLine
  8
0
 62
256
370
-1
  6
ByLayer
 10
778.9489999999999554
 20
-89.9139999999999873
 30
0.0
 11
800.9489999999999554
 21
-89.9139999999999873
 31
0.0
  0
LINE
  5
B4
100
AcDbEntity
100
AcDbLine
  8
0
 62
256
370
-1
  6
ByLayer
 10
800.9489999999999554
 20
-89.9139999999999873
 30
0.0
 11
800.9489999999999554
 21
-80.9139999999999873
 31
0.0
  0
LINE
  5
B5
100
AcDbEntity
100
AcDbLine
  8
0
 62
256
370
-1
  6
ByLayer
 10
800.9489999999999554
 20
-80.9139999999999873
 30
0.0
 11
809.9489999999999554
 21
-80.9139999999999873
 31
0.0
  0
LINE
  5
B6
100
AcDbEntity
100
AcDbLine
  8
0
 62
256
370
-1
  6
ByLayer
 10
809.9489999999999554
 20
-80.9139999999999873
 30
0.0
 11
809.9489999999999554
 21
-58.9139999999999873
 31
0.0
  0
LINE
  5
B7
100
AcDbEntity
100
AcDbLine
  8
0
 62
256
370
-1
  6
ByLayer
 10
809.9489999999999554
 20
-58.9139999999999873
 30
0.0
 11
800.9489999999999554
 21
-58.9139999999999873
 31
0.0
  0
LINE
  5
B8
100
AcDbEntity
100
AcDbLine
  8
0
 62
256
370
-1
  6
ByLayer
 10
800.9489999999999554
 20
-58.9139999999999873
 30
0.0
 11
800.9489999999999554
 21
-49.9139999999999873
 31
0.0
  0
MTEXT
  5
B9
100
AcDbEntity
100
AcDbMText
  8
0
 62
256
370
-1
  6
ByLayer
 10
816.9489999999999554
 20
-51.9139999999999873
 30
0.0
 40
10.0
 41
100.0
 71
1
 72
2
  1
E
  7
normallatin1
 50
0.0
 73
1
 44
1.0
  0
DIMENSION
  5
BA
100
AcDbEntity
  8
0
 62
256
370
-1
  6
ByLayer
100
AcDbDimension
 10
800.9489999999999554
 20
-45.9139999999999873
 30
0.0
 11
789.9489999999999554
 21
-44.0389999999999873
 31
0.0
 70
0
 71
5
 72
1
 41
1.0
 42
0.0
  1

  3
Standard
100
AcDbAlignedDimension
 13
778.9489999999999554
 23
-49.9139999999999873
 33
0.0
 14
800.9489999999999554
 24
-49.9139999999999873
 34
0.0
 50
0.0
100
AcDbRotatedDimension
  0
DIMENSION
  5
BB
100
AcDbEntity
  8
0
 62
256
370
-1
  6
ByLayer
100
AcDbDimension
 10
764.9489999999999554
 20
-89.9139999999999873
 30
0.0
 11
763.0739999999999554
 21
-69.9139999999999873
 31
0.0
 70
1
 71
5
 72
1
 41
1.0
 42
0.0
  1

  3
Standard
100
AcDbAlignedDimension
 13
778.9489999999999554
 23
-49.9139999999999873
 33
0.0
 14
778.9489999999999554
 24
-89.9139999999999873
 34
0.0
  0
DIMENSION
  5
BC
100
AcDbEntity
  8
0
 62
256
370
-1
  6
ByLayer
100
AcDbDimension
 10
816.9489999999999554
 20
-89.9139999999999873
 30
0.0
 11
815.0739999999999554
 21
-85.4139999999999873
 31
0.0
 70
1
 71
5
 72
1
 41
1.0
 42
0.0
  1

  3
Standard
100
AcDbAlignedDimension
 13
800.9489999999999554
 23
-80.9139999999999873
 33
0.0
 14
800.9489999999999554
 24
-89.9139999999999873
 34
0.0
  0
DIMENSION
  5
BD
100
AcDbEntity
  8
0
 62
256
370
-1
  6
ByLayer
100
AcDbDimension
 10
809.9489999999999554
 20
-94.9139999999999873
 30
0.0
 11
805.4489999999999554
 21
-93.0389999999999873
 31
0.0
 70
1
 71
5
 72
1
 41
1.0
 42
0.0
  1

  3
Standard
100
AcDbAlignedDimension
 13
800.9489999999999554
 23
-80.9139999999999873
 33
0.0
 14
809.9489999999999554
 24
-80.9139999999999873
 34
0.0
  0
ARC
  5
BE
100
AcDbEntity
  8
0
 62
256
370
200
  6
ByLayer
100
AcDbCircle
 10
880.0
 20
-91.0
 30
0.0
 40
20.0
100
AcDbArc
 50
45.0000000000000639
 51
90.0000000000000142
  0
ARC
  5
BF
100
AcDbEntity
  8
0
 62
256
370
200
  6
ByLayer
100
AcDbCircle
 10
908.284271247461902
 20
-62.7157287525380411
 30
0.0
 40
20.0
100
AcDbArc
 50
224.9999999999999716
 51
270.0
  0
ARC
  5
C0
100
AcDbEntity
  8
0
 62
256
370
200
  6
ByLayer
100
AcDbCircle
 10
908.284271247461902
 20
-39.0757287525380406
 30
0.0
 40
43.6399999999999579
100
AcDbArc
 50
270.0
 51
314.9999999999999432
  0
ARC
  5
C1
100
AcDbEntity
  8
0
 62
256
370
200
  6
ByLayer
100
AcDbCircle
 10
970.0005511094236681
 20
-100.7920086144998777
 30
0.0
 40
43.6399999999999579
100
AcDbArc
 50
90.0000000000000142
 51
135.0000000000000284
  0
LINE
  5
C2
100
AcDbEntity
100
AcDbLine
  8
0
 62
256
370
-1
  6
ByLayer
 10
880.0
 20
-71.0
 30
0.0
 11
880.0
 21
-82.0
 31
0.0
  0
LINE
  5
C3
100
AcDbEntity
100
AcDbLine
  8
0
 62
256
370
-1
  6
ByLayer
 10
880.0
 20
-82.0
 30
0.0
 11
903.0
 21
-96.0
 31
0.0
  0
LINE
  5
C4
100
AcDbEntity
100
AcDbLine
  8
0
 62
256
370
-1
  6
ByLayer
 10
903.0
 20
-96.0
 30
0.0
 11
970.0
 21
-96.0000000000000284
 31
0.0
  0
LINE
  5
C5
100
AcDbEntity
100
AcDbLine
  8
0
 62
256
370
-1
  6
ByLayer
 10
970.0
 20
-96.0000000000000284
 30
0.0
 11
970.0
 21
-45.9999999999999858
 31
0.0
  0
LINE
  5
C6
100
AcDbEntity
100
AcDbLine
  8
0
 62
256
370
-1
  6
ByLayer
 10
970.0
 20
-45.9999999999999858
 30
0.0
 11
903.0
 21
-46.0
 31
0.0
  0
LINE
  5
C7
100
AcDbEntity
100
AcDbLine
  8
0
 62
256
370
-1
  6
ByLayer
 10
903.0
 20
-46.0
 30
0.0
 11
880.0
 21
-60.0
 31
0.0
  0
LINE
  5
C8
100
AcDbEntity
100
AcDbLine
  8
0
 62
256
370
-1
  6
ByLayer
 10
880.0
 20
-60.0
 30
0.0
 11
880.0
 21
-71.0
 31
0.0
  0
LINE
  5
C9
100
AcDbEntity
100
AcDbLine
  8
0
 62
256
370
-1
  6
ByLayer
 10
880.0
 20
-71.0
 30
0.0
 11
880.0
 21
-71.0
 31
0.0
  0
DIMENSION
  5
CA
100
AcDbEntity
  8
0
 62
256
370
-1
  6
ByLayer
100
AcDbDimension
 10
880.0
 20
-91.0
 30
0.0
 11
882.7950849718745303
 21
-81.2172025984384192
 31
0.0
 70
4
 71
5
 72
1
 41
1.0
 42
0.0
  1

  3
Standard
100
AcDbRadialDimension
 15
888.9442719099990882
 25
-73.1114561800016816
 35
0.0
 40
0.0
  0
DIMENSION
  5
CB
100
AcDbEntity
  8
0
 62
256
370
-1
  6
ByLayer
100
AcDbDimension
 10
908.284271247461902
 20
-62.7157287525380411
 30
0.0
 11
902.4494160996971459
 21
-71.0506007014405867
 31
0.0
 70
4
 71
5
 72
1
 41
1.0
 42
0.0
  1

  3
Standard
100
AcDbRadialDimension
 15
900.0303160453452165
 25
-80.9330892507400108
 35
0.0
 40
0.0
  0
DIMENSION
  5
CC
100
AcDbEntity
  8
0
 62
256
370
-1
  6
ByLayer
100
AcDbDimension
 10
908.284271247461902
 20
-39.0757287525380406
 30
0.0
 11
919.985002400545909
 21
-57.5884518229901801
 31
0.0
 70
4
 71
5
 72
1
 41
1.0
 42
0.0
  1

  3
Standard
100
AcDbRadialDimension
 15
928.355914927706408
 25
-77.8259380419509341
 35
0.0
 40
0.0
  0
DIMENSION
  5
CD
100
AcDbEntity
  8
0
 62
256
370
-1
  6
ByLayer
100
AcDbDimension
 10
970.0005511094236681
 20
-100.7920086144998777
 30
0.0
 11
948.4275040942548003
 21
-97.0195203797526915
 31
0.0
 70
4
 71
5
 72
1
 41
1.0
 42
0.0
  1

  3
Standard
100
AcDbRadialDimension
 15
926.5271234897218164
 25
-96.9827185238753913
 35
0.0
 40
0.0
  0
DIMENSION
  5
CE
100
AcDbEntity
  8
0
 62
256
370
-1
  6
ByLayer
100
AcDbDimension
 10
980.0
 20
-96.0000000000000284
 30
0.0
 11
978.125
 21
-71.0
 31
0.0
 70
1
 71
5
 72
1
 41
1.0
 42
0.0
  1

  3
Standard
100
AcDbAlignedDimension
 13
970.0
 23
-45.9999999999999858
 33
0.0
 14
970.0
 24
-96.0000000000000284
 34
0.0
  0
DIMENSION
  5
CF
100
AcDbEntity
  8
0
 62
256
370
-1
  6
ByLayer
100
AcDbDimension
 10
970.0
 20
-104.0
 30
0.0
 11
936.5
 21
-102.125
 31
0.0
 70
1
 71
5
 72
1
 41
1.0
 42
0.0
  1

  3
Standard
100
AcDbAlignedDimension
 13
903.0
 23
-96.0
 33
0.0
 14
970.0
 24
-96.0
 34
0.0
  0
DIMENSION
  5
D0
100
AcDbEntity
  8
0
 62
256
370
-1
  6
ByLayer
100
AcDbDimension
 10
903.0
 20
-98.0
 30
0.0
 11
891.5
 21
-96.125
 31
0.0
 70
0
 71
5
 72
1
 41
1.0
 42
0.0
  1

  3
Standard
100
AcDbAlignedDimension
 13
880.0
 23
-82.0
 33
0.0
 14
903.0
 24
-96.0
 34
0.0
 50
0.0
100
AcDbRotatedDimension
  0
DIMENSION
  5
D1
100
AcDbEntity
  8
0
 62
256
370
-1
  6
ByLayer
100
AcDbDimension
 10
876.0
 20
-60.0
 30
0.0
 11
874.125
 21
-53.0
 31
0.0
 70
0
 71
5
 72
1
 41
1.0
 42
0.0
  1

  3
Standard
100
AcDbAlignedDimension
 13
903.0
 23
-46.0
 33
0.0
 14
880.0
 24
-60.0
 34
0.0
 50
90.0
100
AcDbRotatedDimension
  0
DIMENSION
  5
D2
100
AcDbEntity
  8
0
 62
256
370
-1
  6
ByLayer
100
AcDbDimension
 10
876.0
 20
-82.0
 30
0.0
 11
874.125
 21
-71.0
 31
0.0
 70
0
 71
5
 72
1
 41
1.0
 42
0.0
  1

  3
Standard
100
AcDbAlignedDimension
 13
880.0
 23
-60.0
 33
0.0
 14
880.0
 24
-82.0
 34
0.0
 50
90.0
100
AcDbRotatedDimension
  0
DIMENSION
  5
D3
100
AcDbEntity
  8
0
 62
256
370
-1
  6
ByLayer
100
AcDbDimension
 10
970.0
 20
-41.0
 30
0.0
 11
925.0
 21
-39.125
 31
0.0
 70
0
 71
5
 72
1
 41
1.0
 42
0.0
  1

  3
Standard
100
AcDbAlignedDimension
 13
880.0
 23
-60.0
 33
0.0
 14
970.0
 24
-46.0
 34
0.0
 50
0.0
100
AcDbRotatedDimension
  0
DIMENSION
  5
D4
100
AcDbEntity
  8
0
 62
256
370
-1
  6
ByLayer
100
AcDbDimension
 10
975.0
 20
-57.1520086144999198
 30
0.0
 11
973.125
 21
-76.5760043072499599
 31
0.0
 70
0
 71
5
 72
1
 41
1.0
 42
0.0
  1

  3
Standard
100
AcDbAlignedDimension
 13
970.0
 23
-96.0
 33
0.0
 14
970.0005511094236681
 24
-57.1520086144999198
 34
0.0
 50
90.0
100
AcDbRotatedDimension
  0
MTEXT
  5
D5
100
AcDbEntity
100
AcDbMText
  8
0
 62
256
370
-1
  6
ByLayer
 10
920.0
 20
20.0
 30
0.0
 40
10.0
 41
100.0
 71
1
 72
2
  1
B
  7
normallatin1
 50
0.0
 73
1
 44
1.0
  0
MTEXT
  5
D6
100
AcDbEntity
100
AcDbMText
  8
0
 62
256
370
-1
  6
ByLayer
 10
810.0
 20
20.0
 30
0.0
 40
10.0
 41
100.0
 71
1
 72
2
  1
C
  7
normallatin1
 50
0.0
 73
1
 44
1.0
  0
MTEXT
  5
D7
100
AcDbEntity
100
AcDbMText
  8
0
 62
256
370
-1
  6
ByLayer
 10
1000.0
 20
-49.9999999999999858
 30
0.0
 40
10.0
 41
100.0
 71
7
 72
2
  1
D
  7
normallatin1
 50
360.0
 73
1
 44
1.0
  0
DIMENSION
  5
D8
100
AcDbEntity
  8
0
 62
256
370
-1
  6
ByLayer
100
AcDbDimension
 10
900.0
 20
105.0
 30
0.0
 11
875.0
 21
106.875
 31
0.0
 70
0
 71
5
 72
1
 41
1.0
 42
0.0
  1

  3
Standard
100
AcDbAlignedDimension
 13
850.0
 23
100.0
 33
0.0
 14
900.0
 24
100.0
 34
0.0
 50
0.0
100
AcDbRotatedDimension
  0
DIMENSION
  5
D9
100
AcDbEntity
  8
0
 62
256
370
-1
  6
ByLayer
100
AcDbDimension
 10
907.0
 20
88.0
 30
0.0
 11
905.125
 21
89.0
 31
0.0
 70
0
 71
5
 72
1
 41
1.0
 42
0.0
  1

  3
Standard
100
AcDbAlignedDimension
 13
900.0
 23
90.0
 33
0.0
 14
900.0
 24
88.0
 34
0.0
 50
90.0
100
AcDbRotatedDimension
  0
DIMENSION
  5
DA
100
AcDbEntity
  8
0
 62
256
370
-1
  6
ByLayer
100
AcDbDimension
 10
847.0
 20
78.0
 30
0.0
 11
845.125
 21
83.0
 31
0.0
 70
0
 71
5
 72
1
 41
1.0
 42
0.0
  1

  3
Standard
100
AcDbAlignedDimension
 13
850.0
 23
88.0
 33
0.0
 14
850.0
 24
78.0
 34
0.0
 50
90.0
100
AcDbRotatedDimension
  0
DIMENSION
  5
DB
100
AcDbEntity
  8
0
 62
256
370
-1
  6
ByLayer
100
AcDbDimension
 10
842.0
 20
78.0
 30
0.0
 11
840.125
 21
89.0
 31
0.0
 70
0
 71
5
 72
1
 41
1.0
 42
0.0
  1

  3
Standard
100
AcDbAlignedDimension
 13
850.0
 23
100.0
 33
0.0
 14
850.0
 24
78.0
 34
0.0
 50
90.0
100
AcDbRotatedDimension
  0
MTEXT
  5
DC
100
AcDbEntity
100
AcDbMText
  8
0
 62
256
370
-1
  6
ByLayer
 10
920.9654192452437655
 20
93.4439149875946242
 30
0.0
 40
10.0
 41
100.0
 71
1
 72
2
  1
A
  7
normallatin1
 50
0.0
 73
1
 44
1.0
  0
ENDSEC
  0
SECTION
  2
OBJECTS
  0
DICTIONARY
  5
C
100
AcDbDictionary
280
0
281
1
  3
ACAD_GROUP
350
D
  3
ACAD_LAYOUT
350
1A
  3
ACAD_MLINESTYLE
350
17
  3
ACAD_PLOTSETTINGS
350
19
  3
ACAD_PLOTSTYLENAME
350
E
  3
AcDbVariableDictionary
350
DD
  0
DICTIONARY
  5
D
100
AcDbDictionary
280
0
281
1
  0
ACDBDICTIONARYWDFLT
  5
E
100
AcDbDictionary
281
1
  3
Normal
350
F
100
AcDbDictionaryWithDefault
340
F
  0
ACDBPLACEHOLDER
  5
F
  0
DICTIONARY
  5
17
100
AcDbDictionary
280
0
281
1
  3
Standard
350
18
  0
MLINESTYLE
  5
18
100
AcDbMlineStyle
  2
STANDARD
 70
0
  3

 62
256
 51
90.0
 52
90.0
 71
2
 49
0.5
 62
256
  6
BYLAYER
 49
-0.5
 62
256
  6
BYLAYER
  0
DICTIONARY
  5
19
100
AcDbDictionary
280
0
281
1
  0
DICTIONARY
  5
1A
100
AcDbDictionary
281
1
  3
Layout1
350
1E
  3
Layout2
350
26
  3
Model
350
22
  0
LAYOUT
  5
1E
100
AcDbPlotSettings
  1

  2
C:\Program Files\AutoCAD 2002\plotters\DWF ePlot (optimized for plotting).pc3
  4

  6

 40
0.0
 41
0.0
 42
0.0
 43
0.0
 44
0.0
 45
0.0
 46
0.0
 47
0.0
 48
0.0
 49
0.0
140
0.0
141
0.0
142
1.0
143
1.0
 70
688
 72
0
 73
0
 74
5
  7

 75
16
147
1.0
148
0.0
149
0.0
100
AcDbLayout
  1
Layout1
 70
1
 71
1
 10
0.0
 20
0.0
 11
420.0
 21
297.0
 12
0.0
 22
0.0
 32
0.0
 14
100000000000000000000.0
 24
100000000000000000000.0
 34
100000000000000000000.0
 15
-100000000000000000000.0
 25
-100000000000000000000.0
 35
-100000000000000000000.0
146
0.0
 13
0.0
 23
0.0
 33
0.0
 16
1.0
 26
0.0
 36
0.0
 17
0.0
 27
1.0
 37
0.0
 76
0
330
1B
  0
LAYOUT
  5
22
100
AcDbPlotSettings
  1

  2
C:\Program Files\AutoCAD 2002\plotters\DWF ePlot (optimized for plotting).pc3
  4

  6

 40
0.0
 41
0.0
 42
0.0
 43
0.0
 44
0.0
 45
0.0
 46
0.0
 47
0.0
 48
0.0
 49
0.0
140
0.0
141
0.0
142
1.0
143
1.0
 70
1712
 72
0
 73
0
 74
0
  7

 75
0
147
1.0
148
0.0
149
0.0
100
AcDbLayout
  1
Model
 70
1
 71
0
 10
0.0
 20
0.0
 11
12.0
 21
9.0
 12
0.0
 22
0.0
 32
0.0
 14
0.0
 24
0.0
 34
0.0
 15
0.0
 25
0.0
 35
0.0
146
0.0
 13
0.0
 23
0.0
 33
0.0
 16
1.0
 26
0.0
 36
0.0
 17
0.0
 27
1.0
 37
0.0
 76
0
330
1F
  0
LAYOUT
  5
26
100
AcDbPlotSettings
  1

  2
C:\Program Files\AutoCAD 2002\plotters\DWF ePlot (optimized for plotting).pc3
  4

  6

 40
0.0
 41
0.0
 42
0.0
 43
0.0
 44
0.0
 45
0.0
 46
0.0
 47
0.0
 48
0.0
 49
0.0
140
0.0
141
0.0
142
1.0
143
1.0
 70
688
 72
0
 73
0
 74
5
  7

 75
16
147
1.0
148
0.0
149
0.0
100
AcDbLayout
  1
Layout2
 70
1
 71
2
 10
0.0
 20
0.0
 11
12.0
 21
9.0
 12
0.0
 22
0.0
 32
0.0
 14
0.0
 24
0.0
 34
0.0
 15
0.0
 25
0.0
 35
0.0
146
0.0
 13
0.0
 23
0.0
 33
0.0
 16
1.0
 26
0.0
 36
0.0
 17
0.0
 27
1.0
 37
0.0
 76
0
330
23
  0
DICTIONARY
  5
DD
100
AcDbDictionary
281
1
  3
DIMASSOC
350
DF
  3
HIDETEXT
350
DE
  0
DICTIONARYVAR
  5
DE
100
DictionaryVariables
280
0
  1
2
  0
DICTIONARYVAR
  5
DF
100
DictionaryVariables
280
0
  1
1
  0
ENDSEC
  0
EOF
